<?xml version="1.0" encoding="utf-8"?>
<!-- Clutch Live — mark vectoriel pur (sablier + chrono). Anneau vert #77BC1F, fond prune #542A44, détails rose #EB6BB0. Aucun raster, aucun masque. -->
<svg version="1.1" xmlns="http://www.w3.org/2000/svg" xmlns:xlink="http://www.w3.org/1999/xlink" viewBox="120 244 354 354" xml:space="preserve">
<circle fill="#77BC1F" cx="297.634" cy="420.936" r="170.721"/>
<circle fill="#542A44" cx="297.634" cy="420.936" r="138.099"/>
<polygon fill="#EB6BB0" points="234.18,481.777 240.388,475.551 240.82,458.262 210.743,458.262 "/>
<polygon fill="#EB6BB0" points="262.627,420.936 295.848,420.09 301.977,413.961 295.513,407.479 262.961,407.479 "/>
<path fill="#77BC1F" d="M298.401,425.709l11.846-11.846l-40.469-40.47L258.03,385.24l-0.845,35.794l-9.547,0.334l0.923-38.25
	c0-1.199,0.53-2.397,1.375-3.242l16.521-16.522c1.886-1.886,4.854-1.886,6.739,0l47.111,47.11c1.865,1.867,1.865,4.853,0,6.739
	l-16.523,16.521c-0.863,0.844-2.042,1.356-3.241,1.356l-94.829,2.476l-11.846,11.846l40.47,40.469l11.846-11.846l0.845-35.539
	l9.548-0.156l-0.943,37.816c0,1.199-0.511,2.398-1.355,3.242l-16.522,16.521c-1.886,1.887-4.872,1.887-6.738,0l-47.11-47.109
	c-1.886-1.866-1.886-4.853,0-6.719l16.522-16.541c0.845-0.846,2.043-1.356,3.241-1.356L298.401,425.709z"/>
<path fill="#EB6BB0" d="M373.978,414.217h-36.461v-36.463C357.613,377.754,373.978,394.099,373.978,414.217z"/>
<path fill="#77BC1F" d="M342.546,362.333v-6.306h3.83c1.354,0,2.396-1.121,2.396-2.397v-7.918c0-1.355-1.119-2.396-2.396-2.396
	h-17.643c-1.354,0-2.376,1.12-2.376,2.396v7.918c0,1.375,1.1,2.397,2.376,2.397h3.852v6.306
	c-13.635,1.277-25.736,7.819-34.262,17.622l6.816,6.817c7.838-9.194,19.43-15.068,32.377-15.068
	c23.437,0,42.434,19.076,42.434,42.415c0,23.358-19.096,42.513-42.434,42.513c-13.459,0-25.48-6.308-33.32-16.188
	c-1.1,0.433-2.298,0.688-3.477,0.688l-7.681,0.178c9.192,14.91,25.656,24.949,44.478,24.949
	c28.701,0,52.139-23.339,52.139-52.139C389.655,387.106,368.948,364.789,342.546,362.333z"/>
<path fill="#77BC1F" d="M380.716,378.167c0.924,0.943,2.456,0.943,3.399,0l3.319-3.32c0.944-0.943,0.944-2.476,0-3.399
	l-6.05-6.051c-0.924-0.943-2.456-0.943-3.399,0l-3.319,3.32c-0.943,0.923-0.943,2.476,0,3.399L380.716,378.167z"/>
</svg>
