<?xml version="1.0" encoding="utf-8"?>
<!-- Clutch Night — mark vectoriel pur (lune + étoiles + sablier). Anneau rose #D76FA9, fond prune #542A44, détails rose #EB6BB0 / vert #77BC1F. Aucun raster, aucun masque. -->
<svg version="1.1" xmlns="http://www.w3.org/2000/svg" xmlns:xlink="http://www.w3.org/1999/xlink" viewBox="120 244 354 354" xml:space="preserve">
<circle fill="#D76FA9" cx="297.634" cy="420.945" r="170.721"/>
<circle fill="#542A44" cx="297.634" cy="420.945" r="138.099"/>
<polygon fill="#EB6BB0" points="330.591,413.804 298.038,413.804 297.704,427.261 330.925,426.416 337.054,420.277 "/>
<path fill="#77BC1F" d="M291.653,448.655l-9.548,0.157l-0.393,16.61c3.025,1.562,6.169,2.799,9.43,3.693L291.653,448.655z"/>
<path fill="#77BC1F" d="M338.862,440.051l16.521-16.532c1.867-1.876,1.867-4.862,0-6.729l-47.109-47.12
	c-1.886-1.876-4.853-1.876-6.738,0l-16.522,16.532c-0.845,0.845-1.375,2.043-1.375,3.241l-0.923,38.249l9.548-0.342l0.845-35.785
	l11.748-11.847l40.47,40.471l-11.847,11.846l-76.126,1.984c0.785,3.251,1.837,6.364,3.191,9.352l75.076-1.965
	C336.818,441.406,337.997,440.896,338.862,440.051z"/>
<path fill="#EB6BB0" d="M277.577,520.086c-2.574,0-5.166-0.137-7.76-0.422c-35.755-3.91-63.062-31.492-66.402-67.069
	c-3.781-38.938,23.477-74.457,62.061-80.842c2.25-0.394,4.361,0.766,5.314,2.76c0.962,2.004,0.481,4.4-1.169,5.884
	c-15.834,14.165-19.381,29.988-19.567,40.774c-0.256,15.127,5.864,30.549,15.962,40.224c10.305,9.872,23.663,15.305,37.622,15.305
	c13.23,0,26.324-4.98,36.864-14.026c1.67-1.443,4.057-1.602,5.903-0.442s2.73,3.389,2.171,5.501
	C340.561,498.063,310.7,520.086,277.577,520.086z M251.046,386.477c-24.597,11.169-40.421,37.15-37.69,65.175
	c2.889,30.814,26.552,54.703,57.542,58.092c24.852,2.74,49.458-10.167,61.697-29.949c-9.077,4.498-18.968,6.886-28.957,6.886l0,0
	c-16.542,0-32.348-6.425-44.518-18.074c-12.053-11.543-19.342-29.783-19.036-47.601C240.24,411.623,242.52,399.051,251.046,386.477
	z"/>
<path fill="#EB6BB0" d="M325.287,322.884c-0.138-0.472-0.57-0.785-1.061-0.815l-18.89-0.775l-6.592-17.74
	c-0.167-0.442-0.608-0.756-1.1-0.756s-0.934,0.313-1.101,0.756l-6.592,17.74l-18.889,0.775c-0.501,0.03-0.934,0.344-1.08,0.815
	c-0.138,0.472,0,0.982,0.393,1.277l14.812,11.738l-5.078,18.221c-0.127,0.481,0.039,1.002,0.442,1.268
	c0.393,0.305,0.943,0.305,1.336,0.02l15.756-10.451l15.755,10.451c0.188,0.147,0.413,0.206,0.649,0.206
	c0.245,0,0.49-0.078,0.697-0.226c0.372-0.266,0.56-0.786,0.432-1.268l-5.088-18.221l14.822-11.738
	C325.287,323.866,325.443,323.355,325.287,322.884z"/>
<path fill="#EB6BB0" d="M409.33,438.577c-0.108-0.354-0.433-0.6-0.805-0.618l-14.312-0.59l-4.99-13.438
	c-0.127-0.334-0.462-0.57-0.834-0.57c-0.374,0-0.708,0.236-0.835,0.57l-4.991,13.438l-14.312,0.59
	c-0.372,0.019-0.707,0.264-0.815,0.618c-0.107,0.363,0,0.746,0.296,0.973l11.227,8.89l-3.85,13.801
	c-0.099,0.363,0.029,0.757,0.333,0.963c0.295,0.226,0.707,0.226,1.012,0.02l11.936-7.928l11.934,7.928
	c0.147,0.107,0.314,0.147,0.491,0.147c0.187,0,0.374-0.06,0.531-0.167c0.284-0.206,0.422-0.6,0.323-0.963l-3.85-13.801l11.227-8.89
	C409.33,439.323,409.448,438.94,409.33,438.577z"/>
<path fill="#EB6BB0" d="M387.092,386.732c0,5.107-4.146,9.253-9.254,9.253c-5.107,0-9.252-4.146-9.252-9.253
	s4.145-9.254,9.252-9.254C382.946,377.479,387.092,381.625,387.092,386.732z"/>
</svg>
