<?xml version="1.0" encoding="utf-8"?>
<!-- Logo Clutch OFFICIEL Mel (assets logodesign2svg) — contour rose #EB6BB0 + flèches vert #77BC1F. Ombre = via CSS drop-shadow. -->
<svg version="1.1" xmlns="http://www.w3.org/2000/svg" viewBox="143 148 340 340" xml:space="preserve">
<path fill="#EB6BB0" d="M396.855,297.445l25.914-25.91l-88.667-88.659l-25.91,25.91l-1.953,78.437l-20.88,0.698l2.087-83.824
	c0.069-2.675,1.157-5.225,3.053-7.117l36.227-36.23c4.076-4.076,10.682-4.076,14.753,0l103.418,103.413
	c4.072,4.068,4.072,10.673,0,14.746l-36.238,36.238c-1.893,1.892-4.438,2.98-7.113,3.045l-207.947,5.188l-25.91,25.91l88.664,88.66
	l25.914-25.918l1.945-77.966l20.872-0.341l-2.066,83c-0.069,2.68-1.157,5.221-3.057,7.121l-36.23,36.23
	c-4.072,4.068-10.674,4.068-14.75,0L145.565,356.663c-4.072-4.076-4.072-10.678,0-14.754l36.234-36.23
	c1.892-1.892,4.438-2.988,7.117-3.053L396.855,297.445z"/>
<polygon fill="#77BC1F" points="256.352,420.249 269.879,406.729 270.817,368.672 204.856,368.672 "/>
<polygon fill="#77BC1F" points="318.768,286.874 391.545,285.063 405.073,271.535 390.79,257.31 319.503,257.31 "/>
</svg>
