<?xml version="1.0" encoding="utf-8"?>
<!-- Generator: Adobe Illustrator 19.1.0, SVG Export Plug-In . SVG Version: 6.00 Build 0)  -->
<svg version="1.1" id="Calque_1" xmlns="http://www.w3.org/2000/svg" xmlns:xlink="http://www.w3.org/1999/xlink" x="0px" y="0px"
	 viewBox="0 0 297 273.9" style="enable-background:new 0 0 297 273.9;" xml:space="preserve">
<style type="text/css">
	.st0{fill:#E27D09;}
	.st1{fill:#F8BE9F;}
</style>
<polygon class="st0" points="-519.6,200.5 -512.3,193.2 -511.8,172.9 -547.1,172.9 "/>
<polygon class="st0" points="-486.2,129.2 -447.3,128.2 -440.1,121 -447.7,113.4 -485.8,113.3 "/>
<path class="st1" d="M-444.5,134.8l13.9-13.9L-478,73.5l-13.9,13.9l-1,41.9l-11.2,0.4l1.1-44.8c0-1.4,0.6-2.8,1.6-3.8l19.4-19.4
	c2.2-2.2,5.7-2.2,7.9,0l55.3,55.3c2.2,2.2,2.2,5.7,0,7.9l-19.4,19.4c-1,1-2.4,1.6-3.8,1.6l-111.2,2.8l-13.9,13.9l47.4,47.4
	l13.9-13.9l1-41.7l11.2-0.2l-1.1,44.4c0,1.4-0.6,2.8-1.6,3.8l-19.4,19.4c-2.2,2.2-5.7,2.2-7.9,0l-55.3-55.3c-2.2-2.2-2.2-5.7,0-7.9
	l19.4-19.4c1-1,2.4-1.6,3.8-1.6L-444.5,134.8z"/>
<g>
	<line class="st0" x1="-514.3" y1="117.7" x2="-625.3" y2="117.7"/>
	<path class="st0" d="M-514.3,123.4h-111c-3.1,0-5.7-2.5-5.7-5.7s2.5-5.7,5.7-5.7h111c3.1,0,5.7,2.5,5.7,5.7
		S-511.2,123.4-514.3,123.4z"/>
</g>
<g>
	<line class="st0" x1="-580.5" y1="141.7" x2="-642.3" y2="141.7"/>
	<path class="st0" d="M-580.5,147.4h-61.9c-3.1,0-5.7-2.5-5.7-5.7s2.5-5.7,5.7-5.7h61.9c3.1,0,5.7,2.5,5.7,5.7
		S-577.3,147.4-580.5,147.4z"/>
</g>
<g>
	<line class="st0" x1="-592.8" y1="165.7" x2="-614.8" y2="165.7"/>
	<path class="st0" d="M-592.8,171.4h-22c-3.1,0-5.7-2.5-5.7-5.7s2.5-5.7,5.7-5.7h22c3.1,0,5.7,2.5,5.7,5.7S-589.7,171.4-592.8,171.4
		z"/>
</g>
<path class="st1" d="M-113.6,134.8l13.9-13.9l-47.4-47.4L-161,87.4l-1,41.9l-11.2,0.4l1.1-44.8c0-1.4,0.6-2.8,1.6-3.8l19.4-19.4
	c2.2-2.2,5.7-2.2,7.9,0l55.3,55.3c2.2,2.2,2.2,5.7,0,7.9l-19.4,19.4c-1,1-2.4,1.6-3.8,1.6l-111.2,2.8l-13.9,13.9l47.4,47.4
	l13.9-13.9l1-41.7l11.2-0.2l-1.1,44.4c0,1.4-0.6,2.8-1.6,3.8l-19.4,19.4c-2.2,2.2-5.7,2.2-7.9,0l-55.3-55.3c-2.2-2.2-2.2-5.7,0-7.9
	l19.4-19.4c1-1,2.4-1.6,3.8-1.6L-113.6,134.8z"/>
<polygon class="st0" points="144.3,200.5 151.5,193.2 152,172.9 116.8,172.9 "/>
<polygon class="st0" points="177.7,129.2 216.6,128.2 223.8,121 216.2,113.4 178.1,113.3 "/>
<g>
	<g>
		<line class="st0" x1="149.6" y1="117.7" x2="38.6" y2="117.7"/>
		<path class="st0" d="M149.6,123.4h-111c-3.1,0-5.7-2.5-5.7-5.7s2.5-5.7,5.7-5.7h111c3.1,0,5.7,2.5,5.7,5.7
			S152.7,123.4,149.6,123.4z"/>
	</g>
	<g>
		<line class="st0" x1="83.4" y1="141.7" x2="21.6" y2="141.7"/>
		<path class="st0" d="M83.4,147.4H21.6c-3.1,0-5.7-2.5-5.7-5.7s2.5-5.7,5.7-5.7h61.9c3.1,0,5.7,2.5,5.7,5.7S86.5,147.4,83.4,147.4z
			"/>
	</g>
	<g>
		<line class="st0" x1="71.1" y1="165.7" x2="49.1" y2="165.7"/>
		<path class="st0" d="M71.1,171.4h-22c-3.1,0-5.7-2.5-5.7-5.7s2.5-5.7,5.7-5.7h22c3.1,0,5.7,2.5,5.7,5.7S74.2,171.4,71.1,171.4z"/>
	</g>
</g>
</svg>
