<?xml version="1.0" encoding="utf-8"?>
<!-- Generator: Adobe Illustrator 19.1.0, SVG Export Plug-In . SVG Version: 6.00 Build 0)  -->
<svg version="1.1" id="Calque_1" xmlns="http://www.w3.org/2000/svg" xmlns:xlink="http://www.w3.org/1999/xlink" x="0px" y="0px"
	 viewBox="0 0 28 28" style="enable-background:new 0 0 28 28;" xml:space="preserve">
<style type="text/css">
	.st0{fill:#F8BE9F;}
	.st1{fill:#E27D09;}
</style>
<g>
	<path class="st0" d="M12.2,22.3C12.2,22.3,12.2,22.3,12.2,22.3c-0.3,0-0.5-0.1-0.6-0.3l-4.5-5.2c-0.3-0.4-0.3-0.9,0.1-1.2
		c0.4-0.3,0.9-0.3,1.2,0.1l3.9,4.5l7.4-8.3c0.3-0.4,0.8-0.4,1.2-0.1c0.4,0.3,0.4,0.8,0.1,1.2L12.9,22C12.7,22.2,12.5,22.3,12.2,22.3
		z"/>
	<path class="st0" d="M15.6,6.4h-3.1V4.7h3.1V6.4z"/>
	<g>
		<polygon class="st1" points="22,14.8 22,23.4 14.3,23.4 14.3,23.4 		"/>
	</g>
	<path class="st0" d="M24.7,23.9c0,1.2-1,2.2-2.2,2.2h-17c-1.2,0-2.2-1-2.2-2.2v-17c0-1.2,1-2.2,2.2-2.2h1.4v1.7H5.5
		C5.2,6.4,5,6.6,5,6.9v17c0,0.3,0.2,0.5,0.5,0.5h17c0.3,0,0.5-0.2,0.5-0.5v-17c0-0.3-0.2-0.5-0.5-0.5h-1.4V4.7h1.4
		c1.2,0,2.2,1,2.2,2.2V23.9z"/>
	<g>
		<path class="st0" d="M9.6,9.3L9.6,9.3C8.7,9.3,8,8.5,8,7.6V3.6c0-0.9,0.8-1.7,1.7-1.7h0c0.9,0,1.7,0.8,1.7,1.7v4.1
			C11.3,8.5,10.6,9.3,9.6,9.3z"/>
		<path class="st0" d="M18.4,9.3L18.4,9.3c-0.9,0-1.7-0.8-1.7-1.7V3.6c0-0.9,0.8-1.7,1.7-1.7h0c0.9,0,1.7,0.8,1.7,1.7v4.1
			C20,8.5,19.3,9.3,18.4,9.3z"/>
	</g>
</g>
</svg>
