<?xml version="1.0" encoding="utf-8"?>
<!-- Generator: Adobe Illustrator 19.1.0, SVG Export Plug-In . SVG Version: 6.00 Build 0)  -->
<svg version="1.1" id="Calque_1" xmlns="http://www.w3.org/2000/svg" xmlns:xlink="http://www.w3.org/1999/xlink" x="0px" y="0px"
	 viewBox="0 0 28 28" style="enable-background:new 0 0 28 28;" xml:space="preserve">
<style type="text/css">
	.st0{fill:#E27D09;}
	.st1{fill:#F8BE9F;}
</style>
<g>
	<path class="st0" d="M17.7,5.4c0.5,0,0.9,0,1.3,0.1C17.8,4,16,3,14,3c-3.5,0-6.4,3-6.4,6.6c0,3.2,2.2,5.9,5.1,6.5
		c-0.9-1.1-1.4-2.6-1.4-4.1C11.3,8.4,14.1,5.4,17.7,5.4z"/>
</g>
<path class="st1" d="M23.2,9.7c0-5.1-4.1-9.2-9.2-9.2S4.8,4.7,4.8,9.7c0,4.8,3.7,8.8,8.4,9.2v2.7H9.9c-0.4,0-0.8,0.4-0.8,0.8
	s0.4,0.8,0.8,0.8h3.3v3.5c0,0.4,0.4,0.8,0.8,0.8s0.8-0.4,0.8-0.8v-3.5h3.3c0.4,0,0.8-0.4,0.8-0.8s-0.4-0.8-0.8-0.8h-3.3v-2.7
	C19.5,18.5,23.2,14.6,23.2,9.7z M6.2,9.7C6.2,5.5,9.7,2,14,2s7.8,3.5,7.8,7.8c0,4.3-3.4,7.7-7.7,7.8c0,0-0.1,0-0.1,0s-0.1,0-0.1,0
	C9.7,17.5,6.2,14,6.2,9.7z"/>
</svg>
