<?xml version="1.0" encoding="utf-8"?>
<!-- Generator: Adobe Illustrator 19.1.0, SVG Export Plug-In . SVG Version: 6.00 Build 0)  -->
<svg version="1.1" id="Calque_1" xmlns="http://www.w3.org/2000/svg" xmlns:xlink="http://www.w3.org/1999/xlink" x="0px" y="0px"
	 viewBox="0 0 28 28" style="enable-background:new 0 0 28 28;" xml:space="preserve">
<path d="M10.2,14c0.9,0.4,1.6,0.9,2.1,1.4c0.6,0.6,1.2,1.5,1.7,2.5c0.5-1,1.1-1.9,1.7-2.5c0.5-0.5,1.2-1,2.1-1.4
	c-0.9-0.4-1.6-0.9-2.1-1.4c-0.6-0.6-1.2-1.5-1.7-2.5c-0.5,1-1.1,1.9-1.7,2.5C11.7,13.1,11,13.6,10.2,14z"/>
<path d="M14,27.4L14,27.4c-0.5,0-0.8-0.4-0.9-0.8c-0.1-4-1.2-7.6-2.8-9.2c-1.3-1.2-4.7-2.2-9-2.5c-0.4,0-0.8-0.4-0.8-0.8
	c0-0.4,0.3-0.8,0.8-0.8c4.3-0.3,7.7-1.3,9-2.5C11.9,9,13,5.4,13.1,1.4c0-0.5,0.4-0.8,0.9-0.8c0.5,0,0.8,0.4,0.9,0.8
	c0.1,4,1.2,7.6,2.8,9.2c1.3,1.2,4.7,2.2,9,2.5c0.4,0,0.8,0.4,0.8,0.8c0,0.4-0.3,0.8-0.8,0.8c-4.3,0.3-7.7,1.3-9,2.5
	c-1.6,1.6-2.7,5.2-2.8,9.2C14.8,27.1,14.5,27.4,14,27.4z M6.9,14c1.8,0.5,3.5,1.1,4.6,2.2c0.9,0.9,1.8,2.4,2.5,4.7
	c0.7-2.2,1.6-3.8,2.5-4.7c1-1,2.8-1.7,4.6-2.2c-1.8-0.5-3.5-1.1-4.6-2.2C15.6,11,14.7,9.4,14,7.2c-0.7,2.2-1.6,3.8-2.5,4.7
	C10.5,12.9,8.7,13.5,6.9,14z"/>
</svg>
