<?xml version="1.0" encoding="utf-8"?>
<!-- Generator: Adobe Illustrator 19.1.0, SVG Export Plug-In . SVG Version: 6.00 Build 0)  -->
<svg version="1.1" id="Calque_1" xmlns="http://www.w3.org/2000/svg" xmlns:xlink="http://www.w3.org/1999/xlink" x="0px" y="0px"
	 viewBox="0 0 28 28" style="enable-background:new 0 0 28 28;" xml:space="preserve">
<g>
	<polygon points="9.4,23.4 18.6,23.4 18.6,18.7 	"/>
	<g>
		<path d="M17.6,8.3c0-2-1.6-3.6-3.6-3.6c-1.2,0-2.3,0.6-3,1.6c2.3,0.3,4.1,2.3,4.1,4.7c0,0.3,0,0.5-0.1,0.8
			C16.6,11.3,17.6,9.9,17.6,8.3z"/>
	</g>
	<path d="M21,16.8l-4.6-2.7c2.3-0.9,4-3.2,4-5.9c0-3.5-2.9-6.4-6.4-6.4c-3.5,0-6.4,2.9-6.4,6.4c0,2.7,1.7,5,4,5.9L7,16.8
		c-0.3,0.2-0.4,0.4-0.4,0.7v7.7c0,0.5,0.4,0.9,0.9,0.9h13.1c0.5,0,0.9-0.4,0.9-0.9v-7.7C21.4,17.3,21.2,17,21,16.8z M9.3,8.3
		c0-2.6,2.1-4.7,4.7-4.7c2.6,0,4.7,2.1,4.7,4.7c0,2.6-2.1,4.7-4.7,4.7C11.4,13,9.3,10.8,9.3,8.3z M19.7,24.4H8.3v-6.4l5.7-3.3
		l5.7,3.3V24.4z"/>
</g>
</svg>
