<?xml version="1.0" encoding="utf-8"?>
<!-- Generator: Adobe Illustrator 19.1.0, SVG Export Plug-In . SVG Version: 6.00 Build 0)  -->
<svg version="1.1" id="Calque_1" xmlns="http://www.w3.org/2000/svg" xmlns:xlink="http://www.w3.org/1999/xlink" x="0px" y="0px"
	 width="120px" height="120px" viewBox="384 215 369 369" style="enable-background:new 0 0 1190.6 841.9;" xml:space="preserve">
<style type="text/css">
	.st0{fill:#EB6BB0;}
	.st1{fill:#FFFFFF;}
</style>
<path class="st0" d="M568.6,581.9c-100.5,0-182.2-81.7-182.2-182.2s81.7-182.2,182.2-182.2s182.2,81.7,182.2,182.2
	S669.1,581.9,568.6,581.9z M568.6,229.1c-94,0-170.5,76.5-170.5,170.5c0,94,76.5,170.5,170.5,170.5c94,0,170.5-76.5,170.5-170.5
	C739.1,305.6,662.7,229.1,568.6,229.1z"/>
<path class="st1" d="M736.7,399.6c0,92.9-75.1,168.1-168,168.1c-92.8,0-168.1-75.1-168.1-168.1c0-92.8,75.3-168,168.1-168
	C661.5,231.6,736.7,306.8,736.7,399.6z"/>
<g>
	<path class="st0" d="M646.8,399.6c0-8.1,6.5-14.6,14.5-14.6h51.5c-6.9-68.7-60.9-122.7-129.6-129.6V307c0,8.1-6.5,14.5-14.5,14.5
		c-8.1,0-14.5-6.5-14.5-14.5v-51.5c-68.7,6.9-122.7,61-129.6,129.6H476c8.1,0,14.5,6.5,14.5,14.6c0,8.1-6.5,14.6-14.5,14.6h-51.5
		c6.9,68.7,61,122.6,129.6,129.6v-51.5c0-8.1,6.5-14.5,14.5-14.5s14.5,6.5,14.5,14.5v51.5c68.7-6.9,122.7-60.9,129.6-129.6h-51.5
		C653.3,414.2,646.8,407.7,646.8,399.6z"/>
</g>
<path class="st1" d="M679.6,336.2c-2.5-4.4-42.6-44.7-47.1-47.2c-4.4-2.6-10.1-1-12.7,3.4L560.6,395c-0.2,0.4,0,0.9-0.2,1.3
	c-0.5,1.2-0.4,2.2-0.4,3.4c0,1.3,0,2.3,0.4,3.4c0.2,0.4,0,0.8,0.2,1.2c0.8,1.4,1.9,2.5,3.2,3.2c0.1,0,0.1,0.2,0.1,0.2s0,0,0.1,0
	c1.4,0.8,3,1.2,4.6,1.2s3.2-0.4,4.6-1.2h0l102.9-58.8C680.6,346.3,682.1,340.7,679.6,336.2z"/>
</svg>
