<?xml version="1.0" encoding="utf-8"?>
<!-- Generator: Adobe Illustrator 16.0.0, SVG Export Plug-In . SVG Version: 6.00 Build 0)  -->
<!DOCTYPE svg PUBLIC "-//W3C//DTD SVG 1.1//EN" "http://www.w3.org/Graphics/SVG/1.1/DTD/svg11.dtd">
<svg version="1.1" id="Calque_1" xmlns="http://www.w3.org/2000/svg" xmlns:xlink="http://www.w3.org/1999/xlink" x="0px" y="0px"
	 width="595.28px" height="841.89px" viewBox="0 0 595.28 841.89" enable-background="new 0 0 595.28 841.89" xml:space="preserve">
<g>
	<g>
		<polygon fill="#878787" points="310.563,545.012 314.613,426.166 282.56,426.166 286.595,545.012 		"/>
		<path fill="#C6C6C6" d="M368.873,363.658c0,38.925-31.535,70.422-70.476,70.422c-38.879,0-70.461-31.497-70.461-70.422
			c0-38.909,31.582-70.43,70.461-70.43C337.338,293.229,368.873,324.749,368.873,363.658z"/>
		<g>
			<path fill="#9D9D9C" d="M298.397,396.184c-34.427,0-63.11-19.664-69.216-45.572c-0.827,4.22-1.245,8.564-1.245,13.047
				c0,38.925,31.582,70.422,70.461,70.422c38.94,0,70.476-31.497,70.476-70.422c0-4.483-0.432-8.827-1.252-13.047
				C361.516,376.52,332.886,396.184,298.397,396.184z"/>
		</g>
		<path fill="#FFFFFF" d="M317.859,331.195c-5.472-2.195-11.641-3.463-18.117-3.463c-19.362,0-35.872,11.177-41.932,26.79
			l-14.601-15.768c9.522-20.993,30.646-35.617,55.188-35.617c8.749,0,17.081,1.871,24.595,5.209L317.859,331.195z"/>
		<polygon fill="#575756" points="290.629,542.354 286.231,433.246 294.1,433.029 298.505,542.137 		"/>
	</g>
	<path fill="#878787" d="M323.146,546.311c0,2.195-9.522,3.957-21.225,3.957s-21.232-1.762-21.232-3.957
		c0-2.164,9.53-3.957,21.232-3.957S323.146,544.146,323.146,546.311z"/>
</g>
</svg>
