<?xml version="1.0" encoding="utf-8"?>
<!-- Generator: Adobe Illustrator 16.0.0, SVG Export Plug-In . SVG Version: 6.00 Build 0)  -->
<!DOCTYPE svg PUBLIC "-//W3C//DTD SVG 1.1//EN" "http://www.w3.org/Graphics/SVG/1.1/DTD/svg11.dtd">
<svg version="1.1" id="Calque_1" xmlns="http://www.w3.org/2000/svg" xmlns:xlink="http://www.w3.org/1999/xlink" x="0px" y="0px"
	 width="595.279px" height="841.89px" viewBox="0 0 595.279 841.89" enable-background="new 0 0 595.279 841.89"
	 xml:space="preserve">
<g>
	<path fill="#B2B2B2" d="M390.36,407.546c0,57.985-46.997,104.993-105.007,104.993c-57.985,0-104.993-47.008-104.993-104.993
		c0-57.991,47.008-105.001,104.993-105.001C343.363,302.545,390.36,349.555,390.36,407.546z"/>
	<g>
		<path fill="#FFFFFF" d="M296.228,417.36c0-6.469-5.229-11.693-11.676-11.693c-6.479,0-11.697,5.224-11.697,11.693
			c0,4.124,2.13,7.724,5.33,9.819v16.635c0,3.077,2.537,5.602,5.613,5.602h1.489c3.098,0,5.601-2.524,5.601-5.602v-16.635
			C294.099,425.084,296.228,421.484,296.228,417.36z"/>
		<path fill="#FFFFFF" d="M321.432,380.157h-1.421v-14.104c0-19.552-15.905-35.47-35.458-35.47
			c-19.576,0-35.478,15.918-35.478,35.47v14.138c-12.871,0.13-23.33,10.622-23.33,23.533v47.382
			c0,12.994,10.572,23.555,23.566,23.555h72.121c12.983,0,23.555-10.561,23.555-23.555v-47.382
			C344.987,390.728,334.415,380.157,321.432,380.157z M259.545,366.052c0-13.779,11.213-24.998,25.008-24.998
			c13.772,0,24.99,11.22,24.99,24.998v14.104h-49.998V366.052L259.545,366.052z M334.505,451.105
			c0,7.214-5.872,13.086-13.073,13.086h-72.121c-7.225,0-13.096-5.872-13.096-13.086v-47.382c0-7.219,5.871-13.085,13.096-13.085
			h72.121c7.2,0,13.073,5.867,13.073,13.085V451.105z"/>
	</g>
</g>
</svg>
