<?xml version="1.0" encoding="utf-8"?>
<!-- Generator: Adobe Illustrator 16.0.0, SVG Export Plug-In . SVG Version: 6.00 Build 0)  -->
<!DOCTYPE svg PUBLIC "-//W3C//DTD SVG 1.1//EN" "http://www.w3.org/Graphics/SVG/1.1/DTD/svg11.dtd">
<svg version="1.1" id="Calque_1" xmlns="http://www.w3.org/2000/svg" xmlns:xlink="http://www.w3.org/1999/xlink" x="0px" y="0px"
	 width="595.28px" height="841.89px" viewBox="0 0 595.28 841.89" enable-background="new 0 0 595.28 841.89" xml:space="preserve">
<path fill="#FFFFFF" d="M382.041,405.605c0,56.124-45.498,101.622-101.624,101.622c-56.124,0-101.634-45.498-101.634-101.622
	c0-56.129,45.51-101.63,101.634-101.63C336.543,303.975,382.041,349.477,382.041,405.605z"/>
<path fill="#B2B2B2" d="M280.417,510.599c-57.902,0-104.994-47.103-104.994-104.993c0-57.899,47.092-105.01,104.994-105.01
	c57.893,0,105.007,47.111,105.007,105.01C385.424,463.496,338.31,510.599,280.417,510.599z M280.417,307.354
	c-54.171,0-98.252,44.078-98.252,98.252c0,54.166,44.081,98.24,98.252,98.24c54.174,0,98.243-44.074,98.243-98.24
	C378.66,351.432,334.591,307.354,280.417,307.354z"/>
<g>
	
		<line fill="none" stroke="#B2B2B2" stroke-width="11.3998" stroke-linecap="round" stroke-linejoin="round" stroke-miterlimit="10" x1="319.461" y1="366.556" x2="241.365" y2="444.646"/>
	
		<line fill="none" stroke="#B2B2B2" stroke-width="11.3998" stroke-linecap="round" stroke-linejoin="round" stroke-miterlimit="10" x1="241.365" y1="366.556" x2="319.461" y2="444.646"/>
</g>
</svg>
