<?xml version="1.0" encoding="utf-8"?>
<!-- Generator: Adobe Illustrator 16.0.0, SVG Export Plug-In . SVG Version: 6.00 Build 0)  -->
<!DOCTYPE svg PUBLIC "-//W3C//DTD SVG 1.1//EN" "http://www.w3.org/Graphics/SVG/1.1/DTD/svg11.dtd">
<svg version="1.1" id="Calque_1" xmlns="http://www.w3.org/2000/svg" xmlns:xlink="http://www.w3.org/1999/xlink" x="0px" y="0px"
	 width="595.28px" height="841.89px" viewBox="0 0 595.28 841.89" enable-background="new 0 0 595.28 841.89" xml:space="preserve">
<g>
	<path fill="#542A44" d="M398.197,495.365c0,13.809-11.189,24.998-24.998,24.998H223.195c-13.808,0-24.998-11.189-24.998-24.998
		V345.361c0-13.808,11.189-24.998,24.998-24.998h150.004c13.809,0,24.998,11.19,24.998,24.998V495.365z"/>
	<g>
		<path fill="#77BC1F" d="M298.184,388.958c-3.473,3.707-8.163,10.188-9.536,19.127c-1.631,10.579,1.571,22.228,9.522,34.69
			c7.97-12.49,11.166-24.171,9.513-34.778C306.282,399.05,301.629,392.628,298.184,388.958z"/>
		<path fill="#EB6BB0" d="M360.581,429.536c-0.34-0.22-7.598-4.905-18.116-5.553c5.549-15.458,0.707-28.926,0.478-29.541
			c-0.432-1.162-1.534-1.938-2.774-1.952c-0.588,0.014-12.394-0.009-24.052,7.772c-4.616-15.007-15.719-22.797-16.251-23.165
			c-1.021-0.698-2.371-0.698-3.391,0c-0.533,0.367-11.621,8.148-16.242,23.128c-11.663-7.745-23.487-7.708-24.006-7.735
			c-1.24,0.014-2.347,0.794-2.779,1.961c-0.225,0.615-5.012,14.093,0.565,29.559c-10.565,0.671-17.851,5.306-18.199,5.525
			c-1.024,0.662-1.543,1.87-1.323,3.069c0.12,0.638,3.068,15.811,17.542,24.942c6.982,4.4,15.338,6.605,24.989,6.605
			c6.472,0,13.542-1.016,21.148-3c7.606,1.984,14.676,3,21.152,3c9.646,0,18.007-2.205,24.993-6.602
			c14.493-9.127,17.47-24.304,17.589-24.942C362.129,431.41,361.605,430.198,360.581,429.536z M335.244,425.779
			c-5.237,10.795-15.559,19.311-30.689,25.388c10.744-15.649,15.149-30.611,13.018-44.552c7.929-5.985,16.459-7.589,20.358-7.988
			C339.057,403.119,340.857,414.213,335.244,425.779z M298.174,383.404c3.528,3.045,11.452,11.162,13.458,23.978
			c2.035,13.027-2.489,27.313-13.463,42.499c-10.946-15.149-15.48-29.398-13.478-42.402
			C286.663,394.672,294.642,386.478,298.174,383.404z M258.482,398.623c3.891,0.386,12.343,1.97,20.285,7.947
			c-2.145,13.937,2.247,28.897,12.977,44.543c-14.97-6.063-25.218-14.524-30.468-25.241
			C255.625,414.337,257.38,403.147,258.482,398.623z M255.312,452.522c-9.338-5.856-13.096-14.915-14.368-18.953
			c2.825-1.368,8.576-3.61,15.77-3.615c6.155,11.475,17.234,20.524,33.16,26.896C275.753,459.468,264.137,458.048,255.312,452.522z
			 M341.119,452.472c-8.829,5.562-20.46,7.001-34.599,4.387c15.98-6.371,27.093-15.416,33.234-26.904
			c7.184,0.023,12.894,2.251,15.7,3.62C354.201,437.589,350.48,446.578,341.119,452.472z"/>
	</g>
</g>
</svg>
