<?xml version="1.0" encoding="utf-8"?>
<!-- Generator: Adobe Illustrator 16.0.0, SVG Export Plug-In . SVG Version: 6.00 Build 0)  -->
<!DOCTYPE svg PUBLIC "-//W3C//DTD SVG 1.1//EN" "http://www.w3.org/Graphics/SVG/1.1/DTD/svg11.dtd">
<svg version="1.1" id="Calque_1" xmlns="http://www.w3.org/2000/svg" xmlns:xlink="http://www.w3.org/1999/xlink" x="0px" y="0px"
	 viewBox="195 317 207 207" enable-background="new 0 0 595.28 841.89" xml:space="preserve">
<path fill="#FFFFFF" d="M398.384,495.365c0,13.809-11.189,24.998-24.998,24.998H223.382c-13.808,0-24.998-11.189-24.998-24.998
	V345.361c0-13.808,11.19-24.998,24.998-24.998h150.004c13.809,0,24.998,11.19,24.998,24.998V495.365z"/>
<g>
	<path fill="#B3B2B2" d="M320.304,381.535c2.931,0.11-5.765-1.447-8.874-1.447c-8.562,0-17.189,3.721-23.675,10.207
		c-5.37,5.365-8.833,12.113-9.88,19.178l8.833,8.833C286.707,418.306,291.425,380.455,320.304,381.535z M333.528,425.513
		c-3.734,0-6.775,3.041-6.775,6.775c0,3.729,3.041,6.767,6.775,6.767s6.775-3.037,6.775-6.771S337.263,425.513,333.528,425.513z"/>
	<path fill="#B3B2B2" d="M344.434,419.646c5.099-14.23,2.265-29.453-7.635-39.356c-14.662-14.649-39.83-13.349-56.118,2.931
		c-7.896,7.896-12.545,18.089-13.087,28.709c-0.005,0.115,0.046,0.221,0.051,0.335c0.009,0.142-0.028,0.28,0.004,0.427
		c0.037,0.156,0.813,3.886,1.92,7.409c0.836,2.678-0.625,13.39-3.564,16.316c-0.018,0.018-0.023,0.046-0.046,0.068l-17.689,16.738
		c-1.162,1.158-1.805,2.701-1.805,4.346s0.643,3.188,1.796,4.332l6.913,6.932c1.153,1.152,2.692,1.787,4.336,1.787h0.004
		c1.645,0,3.188-0.639,4.392-1.852l16.849-17.809c3.068-2.871,13.56-4.272,16.229-3.441c3.528,1.112,7.262,1.889,7.418,1.921
		c0.11,0.022,0.211-0.01,0.317,0c0.096,0.009,0.184,0.055,0.279,0.055c0.051,0,0.102,0,0.152-0.005
		c5.902-0.303,11.791-1.988,17.221-4.772c2.972,2.664,6.857,4.337,11.157,4.337c9.251,0,16.775-7.524,16.775-16.771
		C350.304,427.217,347.998,422.725,344.434,419.646z M259.417,464.594l-6.973-7.061l25.26-23.904
		c0.413,1.342,1.103,2.582,2.131,3.611c1.001,1.001,2.237,1.694,3.592,2.122L259.417,464.594z M275.315,427.63
		c0.331-2.273,0.45-4.409,0.376-6.196l3.004,3L275.315,427.63z M286.344,433.846h-0.004c-0.648,0-1.562-0.147-2.26-0.851
		c-0.873-0.872-0.969-2.282-0.528-3.707l4.226,4.231C287.3,433.661,286.822,433.846,286.344,433.846z M289.463,441.751l3.183-3.362
		l3,2.999C293.864,441.314,291.732,441.434,289.463,441.751z M316.753,432.288c0,2.751,0.73,5.31,1.911,7.606
		c-3.996,1.906-8.245,3.133-12.513,3.515l-11.429-11.429c-0.004-0.005-0.004-0.014-0.014-0.023
		c-0.009-0.009-0.019-0.009-0.023-0.014l-0.023-0.027c-0.004-0.005-0.004-0.005-0.009-0.01c0-0.004-0.004-0.004-0.009-0.004
		l-9.458-9.458c-0.004-0.005-0.004-0.014-0.009-0.019c-0.005-0.005-0.014-0.009-0.023-0.014l-0.009-0.014
		c-0.009-0.01-0.014-0.023-0.023-0.032s-0.023-0.009-0.032-0.019l-11.415-11.419c0.767-8.663,4.731-16.95,11.249-23.463
		c13.937-13.937,35.306-15.255,47.63-2.931c8.007,8.002,10.413,20.294,6.61,32.021c-1.769-0.634-3.647-1.042-5.637-1.042
		C324.277,415.513,316.753,423.037,316.753,432.288z M333.528,443.055c-5.943,0-10.776-4.832-10.776-10.767
		c0-5.944,4.833-10.776,10.776-10.776c5.944,0,10.776,4.832,10.776,10.771S339.473,443.055,333.528,443.055z"/>
</g>
</svg>
