<?xml version="1.0" encoding="utf-8"?>
<!-- Generator: Adobe Illustrator 16.0.0, SVG Export Plug-In . SVG Version: 6.00 Build 0)  -->
<!DOCTYPE svg PUBLIC "-//W3C//DTD SVG 1.1//EN" "http://www.w3.org/Graphics/SVG/1.1/DTD/svg11.dtd">
<svg version="1.1" id="Calque_1" xmlns="http://www.w3.org/2000/svg" xmlns:xlink="http://www.w3.org/1999/xlink" x="0px" y="0px"
	 viewBox="195 317 207 207" enable-background="new 0 0 595.28 841.89" xml:space="preserve">
<g>
	<path fill="#542A44" d="M397.791,495.365c0,13.809-11.189,24.998-24.998,24.998H222.789c-13.808,0-24.998-11.189-24.998-24.998
		V345.361c0-13.808,11.189-24.998,24.998-24.998h150.004c13.809,0,24.998,11.19,24.998,24.998V495.365z"/>
	<g>
		<path fill="#EB6BB0" d="M355.908,400.896c-1.627,0-2.949-1.295-2.995-2.912c-0.147-5.549-1.718-10.868-3.812-12.935
			c-1.333-1.295-5.751-2.848-12.642-3.362c-1.562-0.11-2.774-1.415-2.774-2.986c0-1.571,1.213-2.875,2.774-2.995
			c6.899-0.515,11.309-2.058,12.632-3.362c2.104-2.058,3.675-7.368,3.822-12.926c0.046-1.617,1.368-2.912,2.995-2.912
			c1.626,0,2.958,1.295,3.004,2.912c0.146,5.558,1.718,10.868,3.803,12.917c1.332,1.313,5.752,2.857,12.642,3.372
			c1.571,0.12,2.774,1.424,2.774,2.995c0,1.571-1.203,2.876-2.774,2.986c-6.89,0.514-11.31,2.067-12.632,3.371
			c-2.095,2.058-3.666,7.377-3.812,12.926C358.866,399.601,357.534,400.896,355.908,400.896z M350.239,378.7
			c1.186,0.579,2.241,1.259,3.068,2.077c1.02,1.01,1.884,2.269,2.601,3.684c0.716-1.415,1.58-2.674,2.608-3.684
			c0.827-0.809,1.874-1.498,3.068-2.077c-1.194-0.588-2.251-1.268-3.077-2.085c-1.02-1.011-1.884-2.26-2.6-3.675
			c-0.717,1.415-1.581,2.673-2.609,3.675C352.48,377.433,351.425,378.122,350.239,378.7z"/>
		<path fill="#77BC1F" d="M255.816,484.222c-1.617,0-2.949-1.286-2.995-2.912c-0.092-3.114-0.974-5.622-1.764-6.395
			c-0.395-0.386-2.444-1.249-6.321-1.534c-1.562-0.119-2.774-1.424-2.774-2.994c0-1.571,1.204-2.876,2.774-2.986
			c3.886-0.294,5.926-1.157,6.312-1.525c0.79-0.789,1.681-3.298,1.773-6.412c0.046-1.617,1.378-2.912,2.995-2.912h0.009
			c1.626,0,2.949,1.295,2.995,2.922c0.074,3.104,0.965,5.613,1.755,6.402c0.376,0.358,2.425,1.231,6.321,1.525
			c1.562,0.11,2.774,1.415,2.774,2.986c0,1.57-1.213,2.875-2.784,2.994c-3.877,0.285-5.935,1.158-6.321,1.534
			c-0.781,0.772-1.672,3.28-1.746,6.386c-0.046,1.626-1.369,2.921-2.995,2.921H255.816z"/>
		<path fill="#77BC1F" d="M366.602,436.34c-1.617,0-2.949-1.296-2.995-2.913c-0.101-3.583-1.111-6.394-2.058-7.331
			c-0.524-0.514-2.959-1.461-7.203-1.782c-1.562-0.119-2.774-1.424-2.774-2.995s1.213-2.875,2.784-2.986
			c4.234-0.321,6.66-1.268,7.193-1.792c0.946-0.928,1.957-3.73,2.058-7.313c0.046-1.626,1.378-2.912,2.995-2.912h0.009
			c1.626,0,2.949,1.295,2.995,2.921c0.092,3.565,1.094,6.376,2.039,7.304c0.533,0.524,2.959,1.47,7.203,1.792
			c1.57,0.11,2.783,1.415,2.783,2.986s-1.213,2.875-2.774,2.995c-4.253,0.321-6.679,1.269-7.212,1.792
			c-0.937,0.928-1.947,3.748-2.039,7.312c-0.046,1.626-1.369,2.922-2.995,2.922H366.602z"/>
		<g>
			<path fill="#EB6BB0" d="M338.894,440.263c0.101-0.147,0.156-0.304,0.229-0.46c2.104-4.254,3.556-8.884,4.198-13.771
				c0.028-0.092,0.028-0.184,0.046-0.284c0.23-1.819,0.387-3.666,0.387-5.549c0-1.884-0.156-3.721-0.387-5.549
				c-0.018-0.092-0.018-0.193-0.046-0.285c-1.947-14.69-11.089-27.111-23.785-33.597c-0.174-0.12-0.358-0.184-0.542-0.267
				c-4.234-2.085-8.838-3.519-13.688-4.171c-0.11-0.027-0.229-0.027-0.34-0.046c-1.81-0.229-3.647-0.386-5.521-0.386
				c-1.865,0-3.702,0.156-5.512,0.386c-0.11,0.019-0.221,0.019-0.331,0.046c-14.681,1.948-27.092,11.089-33.578,23.776
				c-0.128,0.193-0.211,0.386-0.285,0.597c-2.085,4.217-3.509,8.792-4.153,13.634c-0.037,0.128-0.037,0.257-0.055,0.395
				c-0.23,1.801-0.377,3.611-0.377,5.467c0,1.855,0.147,3.675,0.377,5.476c0.018,0.128,0.018,0.266,0.055,0.395
				c1.966,14.736,11.171,27.175,23.941,33.643c0.138,0.083,0.267,0.147,0.414,0.202c5.898,2.912,12.503,4.584,19.503,4.584
				c7.139,0,13.854-1.727,19.835-4.74c0,0,0.009,0,0.019-0.009C327.723,455.504,334.604,448.659,338.894,440.263z M309.67,457.074
				c0.643-1.745,1.249-3.629,1.782-5.714c2.535-0.386,5.007-0.91,7.414-1.525c-0.91,1.736-1.893,3.39-2.968,4.896
				C313.914,455.688,311.829,456.478,309.67,457.074z M283.009,454.741c-1.075-1.517-2.058-3.161-2.967-4.906
				c2.397,0.625,4.869,1.14,7.404,1.525c0.542,2.085,1.14,3.969,1.782,5.714C287.07,456.478,284.994,455.688,283.009,454.741z
				 M289.229,383.331c-0.643,1.736-1.24,3.62-1.773,5.705c-2.544,0.386-5.016,0.9-7.414,1.525c0.909-1.737,1.883-3.381,2.958-4.897
				C284.984,384.718,287.07,383.928,289.229,383.331z M315.898,385.664c1.075,1.516,2.058,3.16,2.968,4.897
				c-2.407-0.625-4.879-1.139-7.423-1.525c-0.533-2.085-1.131-3.969-1.773-5.705C311.829,383.928,313.914,384.718,315.898,385.664z
				 M333.987,436.643c-1.507,1.075-3.16,2.058-4.905,2.968c0.625-2.398,1.148-4.869,1.524-7.414c2.095-0.533,3.979-1.13,5.715-1.773
				C335.724,432.582,334.943,434.658,333.987,436.643z M261.153,420.198c0-1.066,0.074-2.113,0.156-3.151
				c1.7-0.882,3.785-1.69,6.247-2.407c-0.128,1.838-0.193,3.693-0.193,5.559c0,1.874,0.064,3.729,0.193,5.567
				c-2.471-0.727-4.547-1.534-6.247-2.407C261.227,422.311,261.153,421.264,261.153,420.198z M273.363,420.198
				c0-2.38,0.156-4.731,0.368-7.047c3.243-0.643,6.798-1.167,10.583-1.552c-0.146,2.811-0.248,5.659-0.248,8.599
				c0,2.939,0.102,5.787,0.248,8.59c-3.785-0.386-7.34-0.9-10.583-1.553C273.519,424.93,273.363,422.587,273.363,420.198z
				 M290.065,420.198c0-3.087,0.128-6.109,0.303-9.077c2.967-0.174,5.99-0.303,9.076-0.303c3.097,0,6.119,0.128,9.086,0.303
				c0.185,2.968,0.304,5.99,0.304,9.077s-0.119,6.109-0.304,9.076c-2.967,0.175-5.989,0.294-9.086,0.294
				c-3.086,0-6.109-0.119-9.076-0.294C290.193,426.308,290.065,423.285,290.065,420.198z M314.585,411.599
				c3.785,0.395,7.34,0.91,10.583,1.562c0.221,2.315,0.367,4.649,0.367,7.038s-0.146,4.731-0.367,7.037
				c-3.243,0.643-6.798,1.167-10.583,1.553c0.146-2.803,0.248-5.65,0.248-8.59C314.833,417.258,314.731,414.41,314.585,411.599z
				 M331.342,414.64c2.472,0.717,4.548,1.534,6.247,2.407c0.092,1.047,0.165,2.085,0.165,3.151c0,1.065-0.073,2.112-0.165,3.151
				c-1.69,0.882-3.775,1.689-6.247,2.406c0.129-1.828,0.193-3.684,0.193-5.558C331.535,418.333,331.471,416.478,331.342,414.64z
				 M330.616,408.2c-0.386-2.544-0.909-5.007-1.534-7.414c1.745,0.909,3.39,1.883,4.905,2.958c0.946,1.994,1.736,4.07,2.334,6.229
				C334.585,409.33,332.701,408.732,330.616,408.2z M321.925,397.718c0.992,2.884,1.792,5.935,2.38,9.122
				c-3.16-0.56-6.578-1.001-10.161-1.332c-0.33-3.583-0.771-7-1.332-10.161C315.99,395.935,319.05,396.726,321.925,397.718z
				 M308.053,405.067c-2.811-0.147-5.668-0.248-8.608-0.248c-2.939,0-5.788,0.101-8.589,0.248c0.386-3.794,0.91-7.349,1.552-10.592
				c2.315-0.211,4.658-0.368,7.037-0.368c2.389,0,4.731,0.156,7.047,0.368C307.134,397.718,307.658,401.273,308.053,405.067z
				 M284.755,405.508c-3.583,0.331-6.991,0.772-10.152,1.332c0.588-3.188,1.378-6.238,2.371-9.122
				c2.885-0.992,5.935-1.783,9.113-2.371C285.526,398.508,285.085,401.925,284.755,405.508z M264.92,403.744
				c1.516-1.075,3.161-2.049,4.897-2.958c-0.625,2.397-1.139,4.869-1.525,7.414c-2.086,0.533-3.969,1.13-5.715,1.773
				C263.184,407.814,263.965,405.738,264.92,403.744z M268.283,432.196c0.386,2.545,0.909,5.016,1.534,7.414
				c-1.736-0.9-3.39-1.884-4.897-2.949c-0.955-1.994-1.736-4.07-2.343-6.238C264.323,431.066,266.197,431.663,268.283,432.196z
				 M276.974,442.679c-0.992-2.885-1.782-5.935-2.371-9.123c3.161,0.561,6.569,1.001,10.152,1.332
				c0.331,3.583,0.771,7.001,1.332,10.161C282.908,444.461,279.858,443.671,276.974,442.679z M290.855,435.319
				c2.802,0.147,5.65,0.248,8.589,0.248c2.94,0,5.798-0.101,8.608-0.248c-0.395,3.795-0.909,7.35-1.562,10.593
				c-2.315,0.221-4.658,0.367-7.047,0.367c-2.379,0-4.722-0.146-7.037-0.367C291.765,442.669,291.241,439.114,290.855,435.319z
				 M314.153,434.888c3.573-0.331,6.991-0.771,10.151-1.332c-0.588,3.188-1.388,6.238-2.38,9.123
				c-2.875,0.992-5.925,1.782-9.113,2.37C313.372,441.889,313.813,438.471,314.153,434.888z M302.596,382.063
				c0.882,1.7,1.69,3.776,2.416,6.238c-1.837-0.128-3.693-0.193-5.567-0.193c-1.865,0-3.72,0.064-5.558,0.193
				c0.726-2.462,1.534-4.538,2.416-6.238c1.038-0.092,2.085-0.166,3.142-0.166C300.511,381.897,301.558,381.971,302.596,382.063z
				 M296.303,458.342c-0.882-1.699-1.69-3.785-2.416-6.247c1.837,0.12,3.693,0.185,5.558,0.185c1.874,0,3.73-0.064,5.567-0.185
				c-0.726,2.462-1.534,4.548-2.416,6.247c-1.038,0.083-2.085,0.156-3.151,0.156C298.388,458.498,297.341,458.425,296.303,458.342z"
				/>
			<g>
				<path fill="#77BC1F" d="M295.788,442.302c1.305,0.073,2.508,0.11,3.666,0.11c1.157,0,2.352-0.037,3.656-0.11
					c0.147-0.873,0.284-1.755,0.404-2.655c-1.332,0.037-2.692,0.056-4.061,0.056c-1.378,0-2.729-0.019-4.07-0.056
					C295.513,440.547,295.65,441.438,295.788,442.302z"/>
				<path fill="#77BC1F" d="M303.11,398.094c-1.305-0.074-2.508-0.11-3.656-0.11c-1.158,0-2.361,0.037-3.666,0.11
					c-0.138,0.873-0.275,1.754-0.404,2.655c1.342-0.037,2.692-0.055,4.07-0.055c1.368,0,2.719,0.018,4.061,0.055
					C303.386,399.849,303.258,398.958,303.11,398.094z"/>
			</g>
			<g>
				<path fill="#77BC1F" d="M277.35,416.532c-0.083,1.305-0.12,2.508-0.12,3.666c0,1.157,0.037,2.352,0.12,3.656
					c0.864,0.146,1.754,0.284,2.655,0.404c-0.037-1.332-0.064-2.692-0.064-4.061c0-1.378,0.027-2.729,0.064-4.07
					C279.096,416.257,278.214,416.395,277.35,416.532z"/>
				<path fill="#77BC1F" d="M321.549,423.854c0.082-1.305,0.119-2.508,0.119-3.656c0-1.158-0.037-2.361-0.119-3.666
					c-0.864-0.138-1.755-0.275-2.655-0.404c0.036,1.342,0.064,2.692,0.064,4.07c0,1.369-0.028,2.719-0.064,4.061
					C319.803,424.13,320.685,424.001,321.549,423.854z"/>
			</g>
			<path fill="#77BC1F" d="M294.181,425.462c1.736,0.073,3.491,0.11,5.273,0.11c1.772,0,3.537-0.037,5.273-0.11
				c0.063-1.727,0.11-3.481,0.11-5.255c0-1.782-0.047-3.537-0.11-5.273c-1.736-0.064-3.501-0.11-5.273-0.11
				c-1.782,0-3.537,0.046-5.273,0.11c-0.064,1.736-0.11,3.491-0.11,5.273C294.07,421.98,294.116,423.735,294.181,425.462z"/>
		</g>
	</g>
</g>
</svg>
