<?xml version="1.0" encoding="utf-8"?>
<!-- Generator: Adobe Illustrator 16.0.0, SVG Export Plug-In . SVG Version: 6.00 Build 0)  -->
<!DOCTYPE svg PUBLIC "-//W3C//DTD SVG 1.1//EN" "http://www.w3.org/Graphics/SVG/1.1/DTD/svg11.dtd">
<svg version="1.1" id="Calque_1" xmlns="http://www.w3.org/2000/svg" xmlns:xlink="http://www.w3.org/1999/xlink" x="0px" y="0px"
	 viewBox="195 317 207 207" enable-background="new 0 0 595.28 841.89" xml:space="preserve">
<path fill="#FFFFFF" d="M397.674,495.758c0,13.809-11.189,24.998-24.998,24.998H222.671c-13.808,0-24.998-11.189-24.998-24.998
	V345.753c0-13.808,11.189-24.998,24.998-24.998h150.004c13.809,0,24.998,11.189,24.998,24.998V495.758z"/>
<g>
	<path fill="#B3B2B2" d="M260.265,444.164c3.436-1.424,5.76-4.759,5.76-8.617c0-5.172-4.207-9.371-9.379-9.371
		c-0.873,0-1.727-0.165-2.508-0.478l-4.998,3.785L260.265,444.164z M314.274,400.14c-1.727-3.914-2.343-8.241-1.745-12.577
		c0.404-2.931,1.322-5.687,2.719-8.195l-27.404,20.771H314.274z"/>
	<path fill="#B3B2B2" d="M356.011,422.171c1.663,0,3.004-1.342,3.004-2.995v-12.035c0-1.653-1.341-2.995-3.004-2.995h-20.202
		c-0.036,0-0.064-0.018-0.092-0.018c0,0-0.009,0-0.019,0c-4.235,0-8.121-1.929-10.666-5.301c-2.159-2.848-3.087-6.367-2.6-9.904
		c0.487-3.546,2.324-6.679,5.172-8.838c0.634-0.478,1.057-1.194,1.167-1.984s-0.101-1.589-0.588-2.223l-7.276-9.591
		c-1.001-1.323-2.885-1.58-4.198-0.569l-50.693,38.429h-9.371c-1.663,0-3.004,1.342-3.004,2.995v6.385l-16.114,12.21
		c-0.634,0.486-1.057,1.194-1.167,1.984c-0.11,0.79,0.101,1.589,0.579,2.223l16.702,22.04v11.979c0,1.663,1.341,3.004,3.004,3.004
		h8.47l6.137,8.241c0.478,0.643,1.194,1.065,1.984,1.176c0.138,0.019,0.276,0.027,0.423,0.027c0.652,0,1.286-0.211,1.81-0.606
		l11.649-8.838h68.893c1.663,0,3.004-1.341,3.004-3.004v-12.035c0-1.653-1.341-2.994-3.004-2.994
		c-7.368,0-13.367-6.009-13.367-13.386S348.643,422.171,356.011,422.171z M317.94,372.304l3.794,4.998
		c-2.848,2.931-4.676,6.679-5.246,10.804c-0.698,5.126,0.635,10.216,3.758,14.341c0.478,0.634,1.075,1.139,1.617,1.699h-45.917
		L317.94,372.304z M243.535,428.712l10.583-8.021c0.524,0.873,1.434,1.479,2.527,1.479c7.377,0,13.385,5.999,13.385,13.376
		c0,6.679-4.934,12.173-11.328,13.174L243.535,428.712z M274.256,469.189l-1.654-2.224h4.594L274.256,469.189z M353.016,454.701
		v6.266h-22.36v-1.038c0-1.507-1.213-2.719-2.72-2.719c-1.497,0-2.719,1.212-2.719,2.719v1.038H259.64v-6.266
		c9.27-1.451,16.39-9.49,16.39-19.154c0-9.665-7.12-17.694-16.39-19.146v-6.256h65.705c-0.055,0.202-0.128,0.395-0.128,0.615v1.773
		c0,1.498,1.222,2.72,2.719,2.72c1.507,0,2.72-1.222,2.72-2.72v-1.773c0-0.22-0.074-0.413-0.12-0.615h22.48v6.256
		c-9.26,1.451-16.371,9.48-16.371,19.146C336.645,445.211,343.756,453.25,353.016,454.701z"/>
	<path fill="#B3B2B2" d="M327.936,419.056c-1.497,0-2.719,1.222-2.719,2.719v3.473c0,1.498,1.222,2.72,2.719,2.72
		c1.507,0,2.72-1.222,2.72-2.72v-3.473C330.655,420.278,329.442,419.056,327.936,419.056z"/>
	<path fill="#B3B2B2" d="M327.936,431.771c-1.497,0-2.719,1.222-2.719,2.719v3.473c0,1.498,1.222,2.72,2.719,2.72
		c1.507,0,2.72-1.222,2.72-2.72v-3.473C330.655,432.993,329.442,431.771,327.936,431.771z"/>
	<path fill="#B3B2B2" d="M327.936,444.485c-1.497,0-2.719,1.222-2.719,2.72v3.473c0,1.497,1.222,2.72,2.719,2.72
		c1.507,0,2.72-1.223,2.72-2.72v-3.473C330.655,445.707,329.442,444.485,327.936,444.485z"/>
	<path fill="#B3B2B2" d="M300.752,448.785c-0.46,0-0.91-0.221-1.195-0.606l-4.648-6.403l-7.515,2.435
		c-0.597,0.202-1.277-0.019-1.645-0.532c-0.376-0.524-0.376-1.223,0-1.736l4.64-6.395l-4.64-6.385c-0.376-0.523-0.376-1.222,0-1.736
		c0.368-0.523,1.047-0.754,1.645-0.542l7.515,2.443l4.648-6.394c0.377-0.524,1.048-0.754,1.654-0.543
		c0.606,0.202,1.02,0.772,1.02,1.406v7.9l7.515,2.444c0.616,0.202,1.029,0.771,1.029,1.405c0,0.643-0.413,1.213-1.029,1.405
		l-7.515,2.444v7.91c0,0.643-0.413,1.212-1.02,1.405C301.063,448.767,300.907,448.785,300.752,448.785z"/>
</g>
</svg>
