<?xml version="1.0" encoding="utf-8"?>
<!-- Generator: Adobe Illustrator 16.0.0, SVG Export Plug-In . SVG Version: 6.00 Build 0)  -->
<!DOCTYPE svg PUBLIC "-//W3C//DTD SVG 1.1//EN" "http://www.w3.org/Graphics/SVG/1.1/DTD/svg11.dtd">
<svg version="1.1" id="Calque_1" xmlns="http://www.w3.org/2000/svg" xmlns:xlink="http://www.w3.org/1999/xlink" x="0px" y="0px"
	 width="595.28px" height="841.89px" viewBox="0 0 595.28 841.89" enable-background="new 0 0 595.28 841.89" xml:space="preserve">
<g>
	<path fill="#542A44" d="M398.197,495.758c0,13.809-11.186,24.998-24.998,24.998h-150c-13.808,0-25.002-11.189-25.002-24.998
		V345.753c0-13.808,11.194-24.998,25.002-24.998h150c13.812,0,24.998,11.189,24.998,24.998V495.758z"/>
	<g>
		<path fill="#77BC1F" d="M262.768,448.051c7.942,0,16.041,0.583,23.643,1.676c-0.326-0.105-0.652-0.211-0.978-0.321
			c-12.495-4.166-20.014-6.679-26.729-6.835c-4.965-0.129-14.268-1.451-21.612-5.43c-0.79,1.709-1.052,2.954-0.992,3.629
			c0.638,1.699,8.236,7.469,18.333,7.469c0.399,0,0.799-0.009,1.204-0.027C257.991,448.105,260.37,448.051,262.768,448.051z"/>
		<path fill="#77BC1F" d="M289.8,436.103c-10.634-7.795-24.924-25.562-24.924-25.562c-10.606,0-15.383-7.809-18.236-12.476
			c-0.45-0.735-1.103-1.8-1.686-2.632c-0.698,2.269-1.189,6.297-1.052,9.513c0.032,0.955-0.11,1.86-0.427,2.724
			c-2.903,7.745-2.586,13.339-2.292,15.494c2.205,2.397,10.326,5.223,17.859,5.406C267.862,428.785,276.59,431.693,289.8,436.103z"
			/>
		<path fill="#EB6BB0" d="M367.555,430.669c-2.178-5.141-9.104-7.327-17.424-9.895c-4.258-1.314-9.086-2.807-14.327-4.901
			c-10.693-4.281-23.624-16.817-33.068-25.967c-8.723-8.457-11.883-11.378-14.704-11.378c-7.271,0-10.202,12.692-10.721,15.246
			l-0.101,0.542c-0.446,2.42-0.997,5.438-11.36,6.187c-5.393,0.262-7.598-2.604-10.726-7.726c-2.338-3.831-4.988-8.176-10.707-8.424
			c-2.265,0-4.313,0.891-5.93,2.577c-4.534,4.727-4.653,14.983-4.598,17.822c-4.676,12.908-2.306,21.548-2.2,21.916
			c0.004,0.018,0.014,0.031,0.018,0.05c-2.154,2.94-6.086,9.169-5.562,14.952c0.786,8.645,16.105,17.212,29.945,16.527
			c13.151-0.569,27.965,0.689,39.619,3.427c3.551,0.831,9.197,1.359,15.866,1.359c17.57,0,42.232-3.651,54.368-14.956
			C372.185,442.207,370.779,435.202,367.555,430.669z M324.871,416.755c1.245,0.813,2.485,1.562,3.717,2.251
			c-3.289,1.079-5.668,0.979-7.042,0.721L324.871,416.755z M315.51,409.773c1.434,1.185,2.876,2.338,4.327,3.436l-3.592,3.201
			c-1.323-0.997-2.894-2.191-4.607-3.491L315.51,409.773z M305.432,400.797c1.769,1.663,3.579,3.34,5.448,5.002l-4.162,3.381
			c-1.952-1.484-3.909-2.977-5.76-4.396L305.432,400.797z M287.582,384.467c1.488,0.546,6.532,5.434,10.978,9.748
			c0.799,0.776,1.663,1.607,2.512,2.425l-4.956,4.415c-1.249-0.97-2.324-1.81-3.096-2.43c-3.45-2.756-7.028-3.583-9.821-3.703
			C284.348,389.281,286.98,384.527,287.582,384.467z M297.076,455.781c-12.338-2.89-27.377-4.208-41.254-3.574
			c-12.535,0.593-23.335-6.991-23.707-11.079c-0.271-3.009,1.792-6.918,3.592-9.638c6.105,4.782,16.555,6.914,23.091,7.079
			c7.322,0.175,15.053,2.756,27.896,7.042c12.733,4.239,27.152,6.174,35.158,6.174c0.345,0,27.304-0.896,39.94-8.104
			C347.168,457.224,309.686,458.73,297.076,455.781z M362.235,435.34c-0.786,5.609-27.565,10.445-40.382,10.445
			c-7.538,0-21.162-1.837-33.303-5.884c-12.875-4.295-21.382-7.134-29.604-7.331c-8.227-0.202-18.925-3.445-21.548-7.813
			c-0.303-1.47-1.428-8.466,2.32-18.461c0.138-0.376,0.202-0.776,0.188-1.18c-0.147-3.436,0.372-11.388,2.912-14.038
			c0.487-0.505,0.96-0.726,1.713-0.726c0.004,0,0.009,0,0.014,0c2.026,0.097,3.395,2.173,5.461,5.554
			c2.88,4.708,6.863,11.304,16.275,10.579c8.043-0.579,12.159-2.655,14.396-5.461c1.534-0.262,5.14-0.478,8.594,2.287
			c0.606,0.487,1.401,1.112,2.292,1.806l-3.39,3.022c-1.236,1.103-1.346,3-0.244,4.24c0.597,0.662,1.415,1.001,2.242,1.001
			c0.712,0,1.424-0.248,1.999-0.758l4.23-3.771c1.75,1.341,3.629,2.779,5.525,4.226l-2.567,2.085
			c-1.286,1.047-1.479,2.935-0.437,4.221c0.593,0.73,1.456,1.107,2.329,1.107c0.666,0,1.337-0.22,1.893-0.67l3.702-3.009
			c1.76,1.336,3.399,2.577,4.842,3.67l-1.548,1.382c-1.236,1.102-1.342,3-0.239,4.235c0.593,0.662,1.415,1.002,2.237,1.002
			c0.712,0,1.424-0.253,1.998-0.763l2.439-2.178c0.092,0.069,0.216,0.161,0.257,0.193c0.184,0.105,2.637,1.502,6.826,1.497
			c3.142,0,7.304-0.877,12.182-3.582c4.543,1.718,8.787,3.086,12.518,4.239C359.934,430.08,362.777,431.49,362.235,435.34z"/>
	</g>
</g>
</svg>
