<?xml version="1.0" encoding="utf-8"?>
<!-- Generator: Adobe Illustrator 16.0.0, SVG Export Plug-In . SVG Version: 6.00 Build 0)  -->
<!DOCTYPE svg PUBLIC "-//W3C//DTD SVG 1.1//EN" "http://www.w3.org/Graphics/SVG/1.1/DTD/svg11.dtd">
<svg version="1.1" id="Calque_1" xmlns="http://www.w3.org/2000/svg" xmlns:xlink="http://www.w3.org/1999/xlink" x="0px" y="0px"
	 width="595.28px" height="841.89px" viewBox="0 0 595.28 841.89" enable-background="new 0 0 595.28 841.89" xml:space="preserve">
<g>
	<path fill="#542A44" d="M397.791,495.758c0,13.809-11.186,24.998-24.998,24.998h-150c-13.808,0-25.002-11.189-25.002-24.998
		V345.753c0-13.808,11.194-24.998,25.002-24.998h150c13.812,0,24.998,11.189,24.998,24.998V495.758z"/>
	<g>
		<path fill="#EB6BB0" d="M262.224,413.277h71.488c3.437,0,8.149,0,10.887-3.325c1.695-2.067,2.2-4.924,1.502-8.517
			c-3.184-16.353-24.327-29.159-48.135-29.159c-23.808,0-44.952,12.807-48.135,29.159c-0.698,3.592-0.193,6.449,1.502,8.517
			C254.075,413.277,258.783,413.277,262.224,413.277z M255.719,402.584c2.609-13.404,21.562-24.309,42.247-24.309
			s39.637,10.905,42.246,24.309c0.331,1.7,0.243,2.958-0.243,3.546c-0.942,1.148-4.139,1.148-6.257,1.148h-71.488
			c-2.117,0-5.319,0-6.261-1.148C255.476,405.542,255.389,404.284,255.719,402.584z"/>
		<path fill="#77BC1F" d="M260.786,451.697c0.491,1.709,1.268,3.399,2.471,4.713c1.107,1.213,3.133,2.83,7.878,2.83h54.281
			c4.754,0,6.775-1.626,7.887-2.839c1.19-1.305,1.953-2.995,2.449-4.713c-3.102-0.441-5.039-1.626-6.303-2.397
			c-0.285-0.175-0.482-0.331-0.717-0.423l-0.817,0.009c-0.226,0.083-0.423,0.239-0.693,0.404c-1.58,0.965-4.227,2.591-8.911,2.591
			c-4.682,0-7.327-1.626-8.907-2.591c-0.275-0.165-0.474-0.321-0.707-0.413l-0.822,0.009c-0.221,0.083-0.418,0.239-0.685,0.396
			c-1.59,0.974-4.235,2.6-8.916,2.6s-7.327-1.626-8.907-2.591c-0.276-0.165-0.473-0.321-0.708-0.413l-0.817,0.009
			c-0.23,0.083-0.427,0.239-0.698,0.404c-1.58,0.965-4.226,2.591-8.907,2.591c-4.681,0-7.326-1.626-8.906-2.591
			c-0.276-0.165-0.474-0.321-0.708-0.413l-0.822,0.009c-0.221,0.083-0.418,0.239-0.685,0.396
			C265.848,450.053,263.9,451.247,260.786,451.697z"/>
		<path fill="#EB6BB0" d="M346.482,442.988c-0.019-0.156-0.093-0.303-0.139-0.45c-0.06-0.193-0.101-0.386-0.197-0.552
			c-0.032-0.063-0.032-0.128-0.068-0.192c-0.864-1.405-2.715-1.855-4.125-0.992c-1.016,0.625-1.75,1.075-3.602,1.075
			c-1.86,0-2.586-0.45-3.684-1.121c-1.314-0.799-3.11-1.901-6.34-1.901c-3.225,0-5.021,1.103-6.334,1.901
			c-1.098,0.671-1.824,1.121-3.684,1.121c-1.856,0-2.582-0.45-3.68-1.121c-1.313-0.799-3.109-1.901-6.339-1.901
			s-5.025,1.103-6.339,1.901c-1.099,0.671-1.824,1.121-3.68,1.121c-1.856,0-2.582-0.45-3.68-1.121
			c-1.313-0.799-3.109-1.901-6.339-1.901c-3.225,0-5.025,1.103-6.334,1.901c-1.098,0.671-1.824,1.121-3.684,1.121
			c-1.855,0-2.581-0.45-3.679-1.121c-1.313-0.799-3.11-1.901-6.339-1.901s-5.025,1.103-6.339,1.901
			c-1.098,0.671-1.824,1.121-3.68,1.121c-1.86,0-2.582-0.45-3.679-1.121l-0.027-0.019c-1.406-0.873-3.248-0.413-4.111,0.992
			c-0.299,0.487-0.391,1.029-0.391,1.571c-0.073,0.9-0.937,12.365,5.857,19.825c3.693,4.061,8.833,6.109,15.287,6.109h54.281
			c6.449,0,11.59-2.049,15.283-6.109c6.922-7.606,5.893-19.431,5.847-19.936C346.537,443.117,346.496,443.062,346.482,442.988z
			 M336.262,459.093c-2.541,2.793-6.092,4.144-10.846,4.144h-54.281c-4.745,0-8.292-1.351-10.832-4.125
			c-3.055-3.344-3.996-8.084-4.268-11.41c0.652,0.102,1.351,0.175,2.164,0.175c3.551,0,5.439-1.158,6.817-2.003
			c1.075-0.662,1.663-1.02,3.202-1.02s2.126,0.357,3.202,1.02c1.378,0.845,3.266,2.003,6.816,2.003s5.439-1.158,6.817-2.003
			c1.075-0.662,1.667-1.02,3.202-1.02c1.539,0,2.127,0.357,3.202,1.02c1.378,0.845,3.266,2.003,6.817,2.003s5.438-1.158,6.816-2.003
			c1.075-0.662,1.663-1.02,3.202-1.02c1.538,0,2.126,0.357,3.201,1.02c1.378,0.845,3.267,2.003,6.817,2.003
			c3.555,0,5.443-1.158,6.821-2.003c1.069-0.662,1.662-1.02,3.196-1.02c1.539,0,2.127,0.357,3.202,1.02
			c1.383,0.845,3.271,2.003,6.821,2.003c0.799,0,1.502-0.064,2.145-0.156C340.217,451.055,339.279,455.776,336.262,459.093z"/>
		<path fill="#EB6BB0" d="M341.355,416.75h-9.315c-0.496,0-0.979,0.12-1.415,0.358c-1.006,0.533-2.136,1.057-3.312,1.608
			c-3.551,1.645-7.74,3.583-10.758,6.826c-3.022-3.243-7.207-5.181-10.758-6.826c-1.177-0.551-2.307-1.075-3.312-1.608
			c-0.437-0.239-0.919-0.358-1.415-0.358h-46.849c-5.057,0-9.173,4.116-9.173,9.178v0.892c0,5.062,4.116,9.178,9.173,9.178h87.134
			c5.062,0,9.178-4.116,9.178-9.178v-0.892C350.533,420.866,346.418,416.75,341.355,416.75z M254.222,429.998
			c-1.75,0-3.174-1.424-3.174-3.179v-0.892c0-1.754,1.424-3.179,3.174-3.179h46.114c0.919,0.469,1.911,0.929,2.936,1.406
			c3.325,1.543,7.005,3.252,9.214,5.843H254.222z M344.534,426.819c0,1.755-1.424,3.179-3.179,3.179h-20.73
			c2.205-2.591,5.889-4.3,9.21-5.843c1.029-0.478,2.021-0.938,2.94-1.406h8.58c1.755,0,3.179,1.425,3.179,3.179V426.819z"/>
		<path fill="#EB6BB0" d="M276.542,404.229c-3.119,0-5.654-2.536-5.654-5.659c0-3.114,2.536-5.659,5.654-5.659
			c3.119,0,5.655,2.545,5.655,5.659C282.196,401.693,279.661,404.229,276.542,404.229z"/>
		<path fill="#77BC1F" d="M292.32,394.141c-2.94,0-5.333-2.389-5.333-5.337c0-2.94,2.393-5.329,5.333-5.329
			c2.939,0,5.333,2.389,5.333,5.329C297.653,391.752,295.26,394.141,292.32,394.141z"/>
		<circle fill="#EB6BB0" cx="305.6" cy="399.543" r="3.61"/>
		<circle fill="#EB6BB0" cx="318.462" cy="392.781" r="3.611"/>
	</g>
</g>
</svg>
