<?xml version="1.0" encoding="utf-8"?>
<!-- Generator: Adobe Illustrator 16.0.0, SVG Export Plug-In . SVG Version: 6.00 Build 0)  -->
<!DOCTYPE svg PUBLIC "-//W3C//DTD SVG 1.1//EN" "http://www.w3.org/Graphics/SVG/1.1/DTD/svg11.dtd">
<svg version="1.1" id="Calque_1" xmlns="http://www.w3.org/2000/svg" xmlns:xlink="http://www.w3.org/1999/xlink" x="0px" y="0px"
	 width="595.28px" height="841.89px" viewBox="0 0 595.28 841.89" enable-background="new 0 0 595.28 841.89" xml:space="preserve">
<path fill="#FFFFFF" d="M398.384,495.758c0,13.809-11.185,24.998-24.998,24.998h-150c-13.808,0-25.002-11.189-25.002-24.998V345.753
	c0-13.808,11.194-24.998,25.002-24.998h150c13.813,0,24.998,11.189,24.998,24.998V495.758z"/>
<g>
	<path fill="#B3B2B2" d="M347.291,440.03l-17.966-10.363c9.1-3.427,15.623-12.154,15.623-22.443
		c0-13.262-10.786-24.047-24.047-24.047c-1.208,0-2.366,0.184-3.528,0.358c-2.352-9.688-11.144-16.899-21.369-16.899
		c-12.15,0-22.03,9.885-22.03,22.039c0,0.919,0.11,1.824,0.225,2.729c-0.244-0.004-0.464-0.069-0.708-0.069
		c-12.154,0-22.04,9.885-22.04,22.035c0,8.842,5.264,16.431,12.798,19.94l-14.516,6.587c-1.07,0.487-1.759,1.558-1.759,2.733v29.229
		c0,1.658,1.341,2.999,3,2.999h44.938c0.032,0,0.06,0.019,0.092,0.019h49.789c1.658,0,3-1.341,3-2.999V442.63
		C348.793,441.56,348.223,440.567,347.291,440.03z M320.901,389.176c9.949,0,18.048,8.098,18.048,18.048
		c0,9.949-8.099,18.048-18.048,18.048c-9.95,0-18.044-8.099-18.044-18.048C302.857,397.274,310.951,389.176,320.901,389.176z
		 M296.004,372.635c7.488,0,13.909,5.314,15.577,12.425c-7.859,3.316-13.482,10.73-14.456,19.527
		c-1.185,0.083-2.361,0.037-3.523-0.138c-2.49-5.586-7.253-9.881-13.091-11.86c-0.322-1.282-0.538-2.586-0.538-3.914
		C279.973,379.833,287.167,372.635,296.004,372.635z M257.451,413.37c0-8.842,7.198-16.036,16.041-16.036
		s16.036,7.194,16.036,16.036c0,8.837-7.188,16.036-16.031,16.041h-0.009C264.645,429.405,257.451,422.207,257.451,413.37z
		 M293.005,468.858h-39.031v-24.295l19.518-8.86l19.513,8.86V468.858z M295.839,439.258l-13.105-5.948
		c7.529-3.509,12.793-11.098,12.793-19.94c0-0.923-0.161-1.801-0.276-2.697c0.253,0.01,0.505,0.042,0.753,0.042
		c0.395,0,0.799-0.096,1.194-0.119c1.25,8.792,7.203,16.027,15.278,19.072L295.839,439.258z M342.794,468.877h-43.79v-24.516
		l21.897-12.627l21.893,12.627V468.877z"/>
	<polygon fill="#B3B2B2" points="257.483,465.478 289.385,465.478 289.385,449.387 	"/>
	<g>
		<g>
			<path fill="#B3B2B2" d="M286.528,413.54c0-6.876-5.59-12.462-12.467-12.462c-4.258,0-8.025,2.141-10.276,5.402
				c8.043,1.075,14.263,7.974,14.263,16.302c0,0.9-0.078,1.787-0.216,2.642C282.872,423.815,286.528,419.093,286.528,413.54z"/>
		</g>
	</g>
	<g>
		<g>
			<path fill="#B3B2B2" d="M335.94,406.374c0-8.125-6.61-14.731-14.741-14.731c-5.029,0-9.467,2.535-12.131,6.389
				c9.499,1.277,16.844,9.421,16.844,19.274c0,1.056-0.082,2.095-0.252,3.11C331.613,418.523,335.94,412.952,335.94,406.374z"/>
		</g>
	</g>
</g>
</svg>
