<?xml version="1.0" encoding="utf-8"?>
<!-- Clutch Live (sablier+chrono) — version Mel : clutch rose #EB6BB0 + détails vert #77BC1F. Recadré sur le glyphe. -->
<svg version="1.1" xmlns="http://www.w3.org/2000/svg" xmlns:xlink="http://www.w3.org/1999/xlink" viewBox="118 140 250 195" xml:space="preserve">
<style type="text/css">.st0{fill:#77BC1F;}.st1{fill:#EB6BB0;}</style>
<polygon class="st0" points="174,294.9 181.3,287.6 181.8,267.3 146.5,267.3 "/>
<polygon class="st0" points="207.4,223.5 246.4,222.5 253.6,215.3 246,207.7 207.8,207.7 "/>
<path class="st1" d="M249.4,229.1l13.9-13.9l-47.5-47.5L202,181.6l-1,42l-11.2,0.4l1.1-44.9c0-1.4,0.6-2.8,1.6-3.8l19.4-19.4
	c2.2-2.2,5.7-2.2,7.9,0l55.3,55.3c2.2,2.2,2.2,5.7,0,7.9l-19.4,19.4c-1,1-2.4,1.6-3.8,1.6L140.6,243l-13.9,13.9l47.5,47.5l13.9-13.9
	l1-41.7l11.2-0.2l-1.1,44.4c0,1.4-0.6,2.8-1.6,3.8l-19.4,19.4c-2.2,2.2-5.7,2.2-7.9,0l-55.3-55.3c-2.2-2.2-2.2-5.7,0-7.9l19.4-19.4
	c1-1,2.4-1.6,3.8-1.6L249.4,229.1z"/>
<g>
	<path class="st0" d="M338.1,215.6h-42.8v-42.8C318.9,172.8,338.1,192,338.1,215.6z"/>
</g>
<g>
	<path class="st1" d="M301.2,154.7v-7.4h4.5c1.6,0,2.8-1.3,2.8-2.8v-9.3c0-1.6-1.3-2.8-2.8-2.8H285c-1.6,0-2.8,1.3-2.8,2.8v9.3
		c0,1.6,1.3,2.8,2.8,2.8h4.5v7.4c-16,1.5-30.2,9.2-40.2,20.7l8,8c9.2-10.8,22.8-17.7,38-17.7c27.5,0,49.8,22.4,49.8,49.8
		s-22.4,49.9-49.8,49.9c-15.8,0-29.9-7.4-39.1-19c-1.3,0.5-2.7,0.8-4.1,0.8l-9,0.2c10.8,17.5,30.1,29.3,52.2,29.3
		c33.7,0,61.2-27.4,61.2-61.2C356.5,183.8,332.2,157.6,301.2,154.7z"/>
	<path class="st1" d="M346,173.3c1.1,1.1,2.9,1.1,4,0l3.9-3.9c1.1-1.1,1.1-2.9,0-4l-7.1-7.1c-1.1-1.1-2.9-1.1-4,0l-3.9,3.9
		c-1.1,1.1-1.1,2.9,0,4L346,173.3z"/>
</g>
</svg>
