<?xml version="1.0" encoding="utf-8"?>
<!-- Generator: Adobe Illustrator 19.1.0, SVG Export Plug-In . SVG Version: 6.00 Build 0)  -->
<svg version="1.1" id="Calque_1" xmlns="http://www.w3.org/2000/svg" xmlns:xlink="http://www.w3.org/1999/xlink" x="0px" y="0px"
	 viewBox="0 0 28 28" style="enable-background:new 0 0 28 28;" xml:space="preserve">
<g>
	<g>
		<path d="M22.2,13l2.1-2.1l-7.1-7.1L15,5.8l-0.2,6.3l-1.7,0.1l0.2-6.7c0-0.2,0.1-0.4,0.2-0.6L16.5,2c0.3-0.3,0.9-0.3,1.2,0l8.3,8.3
			c0.3,0.3,0.3,0.9,0,1.2l-2.9,2.9c-0.2,0.2-0.4,0.2-0.6,0.2L5.8,15l-2.1,2.1l7.1,7.1l2.1-2.1l0.2-6.3l1.7,0l-0.2,6.7
			c0,0.2-0.1,0.4-0.2,0.6L11.5,26c-0.3,0.3-0.9,0.3-1.2,0L2,17.7c-0.3-0.3-0.3-0.9,0-1.2l2.9-2.9c0.2-0.2,0.4-0.2,0.6-0.2L22.2,13z"
			/>
	</g>
	<polygon points="10.9,22.8 11.9,21.7 12,18.7 6.7,18.7 	"/>
	<polygon points="15.9,12.1 21.7,12 22.8,10.9 21.6,9.7 15.9,9.7 	"/>
</g>
</svg>
