<?xml version="1.0" encoding="utf-8"?>
<!-- Generator: Adobe Illustrator 19.1.0, SVG Export Plug-In . SVG Version: 6.00 Build 0)  -->
<svg version="1.1" id="Calque_1" xmlns="http://www.w3.org/2000/svg" xmlns:xlink="http://www.w3.org/1999/xlink" x="0px" y="0px"
	 viewBox="0 0 200 450" style="enable-background:new 0 0 200 450;" xml:space="preserve">
<style type="text/css">
	.st0{fill:#E27D09;}
	.st1{fill:#F8BE9F;}
</style>
<polygon class="st0" points="-334.8,170.6 -295.8,169.7 -288.6,162.4 -296.2,154.8 -334.4,154.8 "/>
<g>
	<path class="st1" d="M-358,255.5l0.6,1.2l12.8-12.8c1-1,1.6-2.4,1.6-3.8l1.1-44.4l-11.2,0.2l-1,41.7l-3.3,3.3
		C-360,245.3-360.3,250.8-358,255.5z"/>
	<path class="st1" d="M-267.1,158.4l-55.3-55.3c-2.2-2.2-5.7-2.2-7.9,0l-19.4,19.4c-1,1-1.6,2.4-1.6,3.8l-1.1,44.9l11.2-0.4l1-42
		l13.9-13.9l47.5,47.5l-13.9,13.9l-111.3,2.8c-1.4,0-2.8,0.6-3.8,1.6l-19.4,19.4c-2.2,2.2-2.2,5.7,0,7.9l42.7,42.7
		c-0.2-4.8,0.4-9.5,1.8-14l-32.7-32.7l13.9-13.9l111.3-2.8c1.4,0,2.8-0.6,3.8-1.6l19.4-19.4C-264.9,164.2-264.9,160.6-267.1,158.4z"
		/>
</g>
<path class="st1" d="M-313.4,286.7c-2.4-4.9-8.2-6.9-13.1-4.5c-4.9,2.4-6.9,8.2-4.5,13.1c1.5,3.1,4.4,5,7.6,5.4l6.1,12.5
	c1.1,2.3,3.9,3.3,6.3,2.2l1.1-0.5c2.3-1.1,3.3-3.9,2.2-6.3l-6.1-12.5C-312.2,293.3-311.9,289.8-313.4,286.7z"/>
<path class="st1" d="M-263,292.3l-14.4-29.8c-3-6.1-8.1-10.7-14.6-13c-4.8-1.7-9.9-1.9-14.7-0.7l-7.1-14.8
	c-4.4-9.1-12.5-15.4-21.6-17.8l-0.3,11.4c5.1,2,9.4,5.9,12,11.2l6.9,14.3l-40.8,19.7l-6.9-14.3c-4.1-8.4-2.4-18.2,3.4-24.8l0.2-14.1
	c-15.1,8.7-21.2,27.8-13.4,43.7l7.3,15.4c-3,2.8-5.3,6.3-6.7,10.3c-2.2,6.5-1.8,13.4,1.1,19.5l14.4,29.8c4.4,9.1,13.5,14.4,23,14.4
	c3.7,0,7.5-0.8,11.1-2.5l49.1-23.8C-262.2,320.3-256.9,305-263,292.3z M-279.8,316.2l-49.1,23.8c-3.4,1.6-7.2,1.9-10.8,0.6
	c-3.6-1.2-6.5-3.8-8.1-7.2l-14.4-29.8c-1.6-3.4-1.9-7.2-0.6-10.8c1.2-3.6,3.8-6.5,7.2-8.1l49.1-23.8c1.9-0.9,4-1.4,6.1-1.4
	c1.6,0,3.2,0.3,4.7,0.8c3.6,1.2,6.5,3.8,8.1,7.2l14.4,29.8C-269.8,304.3-272.8,312.8-279.8,316.2z"/>
<path class="st0" d="M-322.6,332.7l32.4-23.4c2.4-1.6,4.5-3.4,5.4-6.1c0.9-2.7,0.3-4.7-0.5-8.1l-4.7-23.4l13.3,26.9
	c1.2,2.5,1.4,5.4,0.5,8.1c-0.9,2.7-2.9,4.9-5.4,6.1L-322.6,332.7z"/>
<g>
	<path class="st0" d="M-365.9,214.4h-29.9l15.6,15.7C-376.9,223.9-372.1,218.4-365.9,214.4z"/>
</g>
<g>
	<path class="st1" d="M-135.2,255.5l0.6,1.2l12.8-12.8c1-1,1.6-2.4,1.6-3.8l1.1-44.4l-11.2,0.2l-1,41.7l-3.3,3.3
		C-137.2,245.3-137.5,250.8-135.2,255.5z"/>
	<path class="st1" d="M-44.3,158.4l-55.3-55.3c-2.2-2.2-5.7-2.2-7.9,0l-19.4,19.4c-1,1-1.6,2.4-1.6,3.8l-1.1,44.9l11.2-0.4l1-42
		l13.9-13.9l47.5,47.5L-70,176.3l-111.3,2.8c-1.4,0-2.8,0.6-3.8,1.6l-19.4,19.4c-2.2,2.2-2.2,5.7,0,7.9l42.7,42.7
		c-0.2-4.8,0.4-9.5,1.8-14l-32.7-32.7l13.9-13.9l111.3-2.8c1.4,0,2.8-0.6,3.8-1.6l19.4-19.4C-42.1,164.2-42.1,160.6-44.3,158.4z"/>
</g>
<path class="st1" d="M-90.5,286.7c-2.4-4.9-8.2-6.9-13.1-4.5c-4.9,2.4-6.9,8.2-4.5,13.1c1.5,3.1,4.4,5,7.6,5.4l6.1,12.5
	c1.1,2.3,3.9,3.3,6.3,2.2l1.1-0.5c2.3-1.1,3.3-3.9,2.2-6.3L-91,296C-89.3,293.3-89,289.8-90.5,286.7z"/>
<path class="st1" d="M-40.2,292.3l-14.4-29.8c-3-6.1-8.1-10.7-14.6-13c-4.8-1.7-9.9-1.9-14.7-0.7l-7.1-14.8
	c-4.4-9.1-12.5-15.4-21.6-17.8l-0.3,11.4c5.1,2,9.4,5.9,12,11.2l6.9,14.3l-40.8,19.7l-6.9-14.3c-4.1-8.4-2.4-18.2,3.4-24.8l0.2-14.1
	c-15.1,8.7-21.2,27.8-13.4,43.7l7.3,15.4c-3,2.8-5.3,6.3-6.7,10.3c-2.2,6.5-1.8,13.4,1.1,19.5l14.4,29.8c4.4,9.1,13.5,14.4,23,14.4
	c3.7,0,7.5-0.8,11.1-2.5l49.1-23.8C-39.4,320.3-34.1,305-40.2,292.3z M-57,316.2l-49.1,23.8c-3.4,1.6-7.2,1.9-10.8,0.6
	c-3.6-1.2-6.5-3.8-8.1-7.2l-14.4-29.8c-1.6-3.4-1.9-7.2-0.6-10.8c1.2-3.6,3.8-6.5,7.2-8.1l49.1-23.8c1.9-0.9,4-1.4,6.1-1.4
	c1.6,0,3.2,0.3,4.7,0.8c3.6,1.2,6.5,3.8,8.1,7.2l14.4,29.8C-47,304.3-49.9,312.8-57,316.2z"/>
<polygon class="st0" points="108,170.6 147,169.7 154.2,162.4 146.6,154.8 108.4,154.8 "/>
<path class="st0" d="M120.2,332.7l32.4-23.4c2.4-1.6,4.5-3.4,5.4-6.1c0.9-2.7,0.3-4.7-0.5-8.1l-4.7-23.4l13.3,26.9
	c1.2,2.5,1.4,5.4,0.5,8.1c-0.9,2.7-2.9,4.9-5.4,6.1L120.2,332.7z"/>
<g>
	<path class="st0" d="M77,214.4H47.1l15.6,15.7C65.9,223.9,70.7,218.4,77,214.4z"/>
</g>
</svg>
