<?xml version="1.0" encoding="utf-8"?>
<!-- Generator: Adobe Illustrator 19.1.0, SVG Export Plug-In . SVG Version: 6.00 Build 0)  -->
<svg version="1.1" id="Calque_1" xmlns="http://www.w3.org/2000/svg" xmlns:xlink="http://www.w3.org/1999/xlink" x="0px" y="0px"
	 viewBox="0 0 28 28" style="enable-background:new 0 0 28 28;" xml:space="preserve">
<style type="text/css">
	.st0{fill:#F8BE9F;}
	.st1{fill:#E27D09;}
</style>
<path class="st0" d="M14.4,24.6c-5.5,0-10-4.5-10-10s4.5-10,10-10s10,4.5,10,10S19.9,24.6,14.4,24.6z M14.4,6.2C9.8,6.2,6,10,6,14.6
	s3.8,8.4,8.4,8.4s8.4-3.8,8.4-8.4S19.1,6.2,14.4,6.2z"/>
<g>
	<path class="st1" d="M18.5,10.1c0.5,0,1,0.1,1.4,0.2c-1.3-1.7-3.2-2.7-5.4-2.7c-3.8,0-7,3.2-7,7.2c0,3.5,2.4,6.4,5.5,7
		c-0.9-1.2-1.5-2.8-1.5-4.5C11.6,13.3,14.7,10.1,18.5,10.1z"/>
</g>
</svg>
