<?xml version="1.0" encoding="utf-8"?>
<!-- Generator: Adobe Illustrator 19.1.0, SVG Export Plug-In . SVG Version: 6.00 Build 0)  -->
<svg version="1.1" id="Calque_1" xmlns="http://www.w3.org/2000/svg" xmlns:xlink="http://www.w3.org/1999/xlink" x="0px" y="0px"
	 viewBox="0 0 28 28" style="enable-background:new 0 0 28 28;" xml:space="preserve">
<style type="text/css">
	.st0{fill:#E27D09;}
	.st1{fill:#F8BE9F;}
</style>
<g>
	<polygon class="st0" points="4.3,23.4 12.2,23.4 12.2,19.4 	"/>
	<g>
		<path class="st0" d="M11.4,10.5c0-1.7-1.4-3.1-3.1-3.1c-1.1,0-2,0.5-2.6,1.3c2,0.3,3.6,2,3.6,4.1c0,0.2,0,0.4-0.1,0.7
			C10.4,13.1,11.4,11.9,11.4,10.5z"/>
	</g>
	<g>
		<path class="st0" d="M22.9,8.2c0-2-1.6-3.7-3.7-3.7c-1.3,0-2.4,0.6-3,1.6c2.4,0.3,4.2,2.3,4.2,4.8c0,0.3,0,0.5-0.1,0.8
			C21.8,11.2,22.9,9.8,22.9,8.2z"/>
	</g>
	<path class="st1" d="M25.7,16.9l-4.5-2.7c2.3-0.9,3.9-3.2,3.9-5.8c0-3.4-2.7-6.2-6-6.2c-3.2,0-5.8,2.6-6,5.8C12.2,6.2,10.3,5,8.2,5
		c-3,0-5.5,2.5-5.5,5.5c0,2.3,1.4,4.3,3.4,5.1l-3.9,2.3C2,18,1.9,18.2,1.9,18.5v6.6c0,0.4,0.3,0.7,0.7,0.7l22.7,0
		c0.4,0,0.8-0.3,0.8-0.8v-7.6C26.1,17.3,26,17,25.7,16.9z M10.3,15.6c1.8-0.7,3.2-2.4,3.4-4.5c0.7,1.4,1.9,2.5,3.3,3.1l-4.5,2.7
		L10.3,15.6z M19.1,3.7c2.5,0,4.5,2.1,4.5,4.6s-2,4.6-4.5,4.6s-4.5-2.1-4.5-4.6S16.7,3.7,19.1,3.7z M4.2,10.5c0-2.2,1.8-4,4-4
		c2.2,0,4,1.8,4,4c0,2.2-1.8,4-4,4C6,14.5,4.2,12.7,4.2,10.5z M3.4,18.9l4.9-2.8l4.9,2.8v5.4h-1.4c0,0-0.1,0-0.1,0H3.4V18.9z
		 M24.6,24.3h-10v-5.9c0-0.3-0.1-0.5-0.4-0.6L14,17.7l5.1-3l5.5,3.3V24.3z"/>
</g>
</svg>
