<?xml version="1.0" encoding="utf-8"?>
<!-- Generator: Adobe Illustrator 16.0.0, SVG Export Plug-In . SVG Version: 6.00 Build 0)  -->
<!DOCTYPE svg PUBLIC "-//W3C//DTD SVG 1.1//EN" "http://www.w3.org/Graphics/SVG/1.1/DTD/svg11.dtd">
<svg version="1.1" id="Calque_1" xmlns="http://www.w3.org/2000/svg" xmlns:xlink="http://www.w3.org/1999/xlink" x="0px" y="0px"
	  viewBox="180 302 236 236" enable-background="new 0 0 595.28 841.89" xml:space="preserve">
<path fill="#FFFFFF" d="M400.055,420.429c0,56.223-45.578,101.807-101.811,101.807c-56.23,0-101.807-45.584-101.807-101.807
	c0-56.224,45.576-101.809,101.807-101.809C354.477,318.62,400.055,364.205,400.055,420.429z"/>
<g>
	<path fill="#B2B2B2" d="M288.478,466.066c-0.017,0-0.017,0-0.03,0c-1.354-0.008-2.629-0.605-3.5-1.617l-24.72-28.808
		c-1.68-1.968-1.446-4.915,0.499-6.596c1.959-1.68,4.9-1.446,6.595,0.513l21.22,24.748l40.691-45.716
		c1.711-1.936,4.666-2.099,6.595-0.389c1.928,1.712,2.101,4.676,0.387,6.595l-44.238,49.709
		C291.091,465.5,289.816,466.066,288.478,466.066z"/>
	<path fill="#B2B2B2" d="M306.848,378.546h-17.204v-9.333h17.204V378.546z"/>
	<g>
		<polygon fill="#B2B2B2" points="341.955,424.691 341.955,471.808 300.018,471.808 299.896,471.946 		"/>
	</g>
	<path fill="#B2B2B2" d="M357.138,474.91c0,6.666-5.413,12.079-12.071,12.079h-93.641c-6.658,0-12.07-5.413-12.07-12.079v-93.618
		c0-6.666,5.412-12.079,12.07-12.079h7.495v9.333h-7.495c-1.465,0-2.725,1.26-2.725,2.746v93.618c0,1.469,1.26,2.73,2.725,2.73
		h93.641c1.479,0,2.723-1.262,2.723-2.73v-93.618c0-1.486-1.244-2.746-2.723-2.746h-7.497v-9.333h7.497
		c6.658,0,12.071,5.414,12.071,12.079V474.91z"/>
	<g>
		<path fill="#B2B2B2" d="M276.468,394.56h-4.355c-3.874,0-7.016-3.158-7.016-6.992v-26.692c0-3.85,3.142-7.008,7.016-7.008h4.355
			c3.844,0,6.999,3.158,6.999,7.008v26.692C283.467,391.402,280.312,394.56,276.468,394.56z"/>
		<path fill="#B2B2B2" d="M324.393,394.56h-4.371c-3.858,0-7-3.158-7-6.992v-26.692c0-3.85,3.142-7.008,7-7.008h4.371
			c3.844,0,6.999,3.158,6.999,7.008v26.692C331.392,391.402,328.236,394.56,324.393,394.56z"/>
	</g>
</g>
<path fill="#B2B2B2" d="M298.244,525.619c-58.003,0-105.19-47.188-105.19-105.19c0-58.005,47.188-105.191,105.19-105.191
	c58.006,0,105.191,47.186,105.191,105.191C403.436,478.432,356.25,525.619,298.244,525.619z M298.244,322.004
	c-54.27,0-98.424,44.152-98.424,98.425c0,54.271,44.154,98.427,98.424,98.427c54.274,0,98.427-44.156,98.427-98.427
	C396.671,366.156,352.519,322.004,298.244,322.004z"/>
</svg>
