<?xml version="1.0" encoding="utf-8"?>
<!-- Generator: Adobe Illustrator 16.0.0, SVG Export Plug-In . SVG Version: 6.00 Build 0)  -->
<!DOCTYPE svg PUBLIC "-//W3C//DTD SVG 1.1//EN" "http://www.w3.org/Graphics/SVG/1.1/DTD/svg11.dtd">
<svg version="1.1" id="Calque_1" xmlns="http://www.w3.org/2000/svg" xmlns:xlink="http://www.w3.org/1999/xlink" x="0px" y="0px"
	  viewBox="180 302 236 236" enable-background="new 0 0 595.28 841.89" xml:space="preserve">
<path fill="#542A44" d="M399.308,420.429c0,56.223-45.578,101.807-101.808,101.807c-56.232,0-101.811-45.584-101.811-101.807
	c0-56.224,45.578-101.809,101.811-101.809C353.729,318.62,399.308,364.205,399.308,420.429z"/>
<path fill="#B2B2B2" d="M297.5,525.619c-58.006,0-105.193-47.188-105.193-105.19c0-58.005,47.188-105.191,105.193-105.191
	c58.003,0,105.19,47.186,105.19,105.191C402.69,478.432,355.503,525.619,297.5,525.619z M297.5,322.004
	c-54.274,0-98.427,44.152-98.427,98.425c0,54.271,44.152,98.427,98.427,98.427c54.27,0,98.424-44.156,98.424-98.427
	C395.924,366.156,351.77,322.004,297.5,322.004z"/>
<g>
	<g>
		<g>
			<path fill="#77BC1F" d="M339.364,406.67c-3.716-3.702-7.993-6.478-12.56-8.338c8.96,14.708,7.084,34.159-5.624,46.883
				c-11.214,11.199-27.655,13.985-41.471,8.354c1.549,2.551,3.425,4.954,5.626,7.153c14.908,14.921,39.105,14.921,54.028,0
				C354.291,445.791,354.291,421.603,339.364,406.67z"/>
		</g>
	</g>
	<path fill="#D76FA9" d="M350.97,395.042c-10.313-10.312-24.031-15.998-38.616-15.998c-5.748,0-11.371,0.895-16.769,2.637
		c-1.033-7.227-4.308-14.023-9.542-19.242c-13.239-13.23-34.805-13.245-48.067,0c-13.259,13.253-13.259,34.836,0,48.097
		c5.827,5.818,13.466,9.107,21.521,9.69c-4.712,18.526,0.506,38.437,14.21,52.125c10.32,10.313,24.031,15.999,38.63,15.999
		c14.602,0,28.319-5.686,38.647-15.999C372.287,451.041,372.287,416.354,350.97,395.042z M244.065,368.537
		c9.903-9.885,26.001-9.885,35.888,0c5.024,5.024,7.715,11.97,7.402,19.062v0.007l0,0c-0.286,6.339-2.915,12.32-7.402,16.823
		c-4.132,4.123-9.381,6.635-15.189,7.265c-7.601,0.801-15.223-1.813-20.682-7.265C234.181,394.537,234.181,378.438,244.065,368.537z
		 M344.881,466.244c-8.698,8.691-20.247,13.479-32.544,13.479c-12.287,0-23.836-4.788-32.532-13.479
		c-12.148-12.13-16.472-30.104-11.341-46.391c6.627-1.284,12.795-4.526,17.593-9.325c5.353-5.375,8.743-12.305,9.677-19.763
		c5.297-2.053,10.872-3.088,16.62-3.088c12.28,0,23.829,4.784,32.527,13.472c8.693,8.695,13.478,20.253,13.478,32.549
		S353.574,457.551,344.881,466.244z"/>
</g>
</svg>
