<?xml version="1.0" encoding="utf-8"?>
<!-- Generator: Adobe Illustrator 19.1.0, SVG Export Plug-In . SVG Version: 6.00 Build 0)  -->
<svg version="1.1" id="Calque_1" xmlns="http://www.w3.org/2000/svg" xmlns:xlink="http://www.w3.org/1999/xlink" x="0px" y="0px"
	 viewBox="0 0 28 28" style="enable-background:new 0 0 28 28;" xml:space="preserve">
<g>
	<path d="M17.2,11.4c0.5,0,1,0.1,1.4,0.2c-1.3-1.7-3.2-2.7-5.4-2.7c-3.8,0-7,3.2-7,7.2c0,3.5,2.4,6.4,5.5,7
		c-0.9-1.2-1.5-2.8-1.5-4.5C10.2,14.6,13.3,11.4,17.2,11.4z"/>
</g>
<path d="M26.9,2.8C26.9,2.7,26.9,2.7,26.9,2.8c0-0.1,0-0.1,0-0.2c0,0,0,0,0,0c0,0,0-0.1-0.1-0.1c0,0,0,0,0,0
	c-0.1-0.1-0.1-0.2-0.2-0.2c0,0,0,0,0,0c0,0-0.1-0.1-0.1-0.1c0,0,0,0,0,0c0,0-0.1,0-0.1,0c0,0,0,0,0,0c-0.1,0-0.1,0-0.2,0h-8.2
	c-0.5,0-0.9,0.4-0.9,0.9s0.4,0.9,0.9,0.9H24l-4.5,4.5C15.6,4.9,9.7,5.1,6,8.8C2.1,12.7,2.1,19.1,6,23c1.9,1.9,4.4,2.9,7.1,2.9
	s5.2-1,7.1-2.9c3.7-3.7,3.9-9.6,0.6-13.5L25.2,5v6.2c0,0.5,0.4,0.9,0.9,0.9s0.9-0.4,0.9-0.9V2.9C26.9,2.9,26.9,2.8,26.9,2.8z
	 M19,21.9c-3.3,3.3-8.6,3.3-11.9,0c-3.3-3.3-3.3-8.6,0-11.9c1.6-1.6,3.8-2.5,6-2.5c2.1,0,4.2,0.8,5.8,2.4c0,0,0.1,0.1,0.1,0.1
	c0,0,0.1,0.1,0.1,0.1C22.3,13.4,22.3,18.6,19,21.9z"/>
</svg>
