<?xml version="1.0" encoding="utf-8"?>
<!-- Generator: Adobe Illustrator 16.0.0, SVG Export Plug-In . SVG Version: 6.00 Build 0)  -->
<!DOCTYPE svg PUBLIC "-//W3C//DTD SVG 1.1//EN" "http://www.w3.org/Graphics/SVG/1.1/DTD/svg11.dtd">
<svg version="1.1" xmlns="http://www.w3.org/2000/svg" xmlns:xlink="http://www.w3.org/1999/xlink" x="0px" y="0px" width="340px"
	 height="70px" viewBox="0 0 340 70" enable-background="new 0 0 340 70" xml:space="preserve">
<g id="presence-card">
	<path fill="#FFFFFF" d="M340,63.814c0,3.418-2.784,6.186-6.219,6.186H6.218C2.783,70,0,67.232,0,63.814V6.184
		C0,2.769,2.783,0,6.218,0h327.564C337.216,0,340,2.769,340,6.184V63.814z"/>
</g>
<g id="avatar">
	<path fill="#74C3B4" d="M63.001,56.777c0,3.437-2.787,6.223-6.226,6.223h-43.55C9.787,63,7,60.213,7,56.777V13.224
		C7,9.787,9.787,7,13.226,7h43.55c3.439,0,6.226,2.787,6.226,6.224V56.777z"/>
</g>
<g id="gender-icon">
	<g>
		<g>
			<g>
				<path fill="#7C7B7C" d="M80.196,9.748c0.273,0,0.495,0,0.713,0.056c-0.657-0.821-1.643-1.369-2.736-1.369
					c-1.915,0-3.503,1.64-3.503,3.61c0,1.751,1.204,3.229,2.791,3.558c-0.489-0.603-0.766-1.422-0.766-2.244
					C76.694,11.389,78.229,9.748,80.196,9.748z"/>
			</g>
			<path fill="#7C7B7C" d="M83.206,12.1c0-2.791-2.242-5.034-5.033-5.034c-2.792,0-5.033,2.298-5.033,5.034
				c0,2.626,2.023,4.816,4.594,5.035v1.478h-1.805c-0.219,0-0.437,0.22-0.437,0.437c0,0.22,0.218,0.437,0.437,0.437h1.805v1.917
				c0,0.219,0.218,0.437,0.438,0.437c0.218,0,0.437-0.218,0.437-0.437v-1.917h1.807c0.218,0,0.437-0.217,0.437-0.437
				c0-0.217-0.219-0.437-0.437-0.437H78.61v-1.478C81.182,16.916,83.206,14.782,83.206,12.1z M73.906,12.1
				c0-2.296,1.912-4.213,4.267-4.213c2.352,0,4.267,1.917,4.267,4.267c0,2.354-1.861,4.215-4.211,4.269h-0.056h-0.054
				C75.817,16.369,73.906,14.454,73.906,12.1z"/>
		</g>
	</g>
</g>
<g id="name">
	<text transform="matrix(1 0 0 1 86.9062 20.6138)" fill="#706F6F" font-family="'SFUIText-Bold'" font-size="18.1023">Isabella</text>
</g>
<g id="age">
	<text transform="matrix(1 0 0 1 159.688 20.6138)"><tspan x="0" y="0" fill="#706F6F" font-family="'SFUIText-Bold'" font-size="9.0511">  </tspan><tspan x="4.667" y="0" fill="#706F6F" font-family="'SFUIText-Bold'" font-size="8.8116">25 ans</tspan></text>
</g>
<g id="comment">
	<text transform="matrix(1 0 0 1 73.1387 36.8667)"><tspan x="0" y="0" fill="#707070" font-family="'SFUIText-Bold'" font-size="8.7999">Envie d’aller me baigner, quelqu’un vient avec moi?</tspan><tspan x="0" y="10.56" fill="#707070" font-family="'SFUIText-Bold'" font-size="8.7999">Merci!</tspan></text>
</g>
<g id="distance">
	<g>
		<text transform="matrix(1 0 0 1 73.1387 62.8481)" fill="#7C7B7C" font-family="'SFUIText-Bold'" font-size="10.0917">A deux pas</text>
	</g>
</g>
<g id="pin">
	<path fill="#B2B2B2" d="M329.833,19.944c-1.725-1.727-3.841-2.884-5.804-3.179c-0.241-0.031-0.496,0.072-0.641,0.279
		c-0.957,1.408-1.297,3.072-1.082,4.668l-2.943,2.944c-2.178-0.654-4.343-0.24-5.725,1.141c-0.979,0.979-0.325,3.486,1.301,5.808
		l-4.372,6.693c-0.169,0.262-0.135,0.605,0.086,0.825c0.126,0.126,0.295,0.192,0.464,0.192c0.125,0,0.25-0.035,0.36-0.107
		l6.669-4.353c0.798,0.585,1.616,1.068,2.406,1.386c0.721,0.29,1.373,0.435,1.932,0.435c0.625,0,1.133-0.181,1.492-0.541
		c1.382-1.376,1.796-3.542,1.144-5.723l2.953-2.953c0.291,0.038,0.58,0.085,0.879,0.085c1.356,0,2.663-0.401,3.778-1.16
		c0.208-0.143,0.316-0.391,0.28-0.641C332.721,23.784,331.561,21.67,329.833,19.944z M313.38,36.398l2.416-3.7
		c0.198,0.229,0.391,0.46,0.605,0.675c0.217,0.217,0.445,0.414,0.671,0.614L313.38,36.398z M323.049,35.206
		c-0.424,0.424-2.355-0.005-4.499-1.692c-0.005-0.003-0.01-0.008-0.015-0.012c-0.397-0.313-0.8-0.655-1.204-1.059
		c-1.111-1.11-2.024-2.482-2.51-3.76c-0.463-1.224-0.348-1.863-0.253-1.957c0.96-0.96,2.413-1.251,3.979-0.901
		c-0.354,1.14,0.162,2.707,1.429,3.975c1.011,1.009,2.213,1.551,3.237,1.551c0.262,0,0.503-0.054,0.736-0.126
		C324.301,32.793,324.01,34.247,323.049,35.206z M323.853,29.823c-0.475,0.473-1.833,0.163-2.947-0.953
		c-1.115-1.115-1.424-2.475-0.952-2.945l2.734-2.735c0.329,0.874,0.819,1.695,1.513,2.388c0.686,0.683,1.497,1.186,2.377,1.518
		L323.853,29.823z M325.13,24.649c-1.437-1.437-1.901-3.515-1.344-5.377c0.573,1.358,1.51,2.745,2.743,3.977
		c1.23,1.23,2.611,2.162,3.962,2.735C328.642,26.512,326.524,26.042,325.13,24.649z M327.459,22.319
		c-1.238-1.237-2.16-2.667-2.63-3.997c1.398,0.437,2.837,1.314,4.075,2.551c1.238,1.236,2.114,2.675,2.55,4.073
		C330.128,24.479,328.698,23.557,327.459,22.319z"/>
</g>
<g id="compatibility-dots">
	<path fill="#B2B2B2" d="M220.931,62.741c-2.645,0-4.796-2.15-4.796-4.795c0-2.643,2.151-4.794,4.796-4.794s4.796,2.151,4.796,4.794
		C225.727,60.59,223.576,62.741,220.931,62.741z"/>
	<path fill="#B2B2B2" d="M231.762,62.741c-2.645,0-4.796-2.15-4.796-4.795c0-2.643,2.151-4.794,4.796-4.794s4.796,2.151,4.796,4.794
		C236.558,60.59,234.407,62.741,231.762,62.741z"/>
	<path fill="#B2B2B2" d="M242.593,62.741c-2.645,0-4.797-2.15-4.797-4.795c0-2.643,2.152-4.794,4.797-4.794s4.796,2.151,4.796,4.794
		C247.389,60.59,245.238,62.741,242.593,62.741z"/>
	<path fill="#B2B2B2" d="M253.423,62.741c-2.645,0-4.796-2.15-4.796-4.795c0-2.643,2.151-4.794,4.796-4.794s4.797,2.151,4.797,4.794
		C258.22,60.59,256.068,62.741,253.423,62.741z"/>
	<path fill="none" stroke="#B2B2B2" stroke-miterlimit="10" d="M264.254,62.741c-2.645,0-4.796-2.15-4.796-4.795
		c0-2.643,2.151-4.794,4.796-4.794s4.796,2.151,4.796,4.794C269.05,60.59,266.899,62.741,264.254,62.741z"/>
</g>
<g id="reliability-stars">
	<polygon fill="#B2B2B2" points="282.911,53.263 284.073,56.84 287.836,56.84 284.792,59.051 285.953,62.628 282.911,60.417 
		279.867,62.628 281.03,59.051 277.986,56.84 281.749,56.84 	"/>
	<polygon fill="#B2B2B2" points="294.381,53.263 295.544,56.84 299.306,56.84 296.262,59.051 297.427,62.628 294.381,60.417 
		291.338,62.628 292.501,59.051 289.458,56.84 293.22,56.84 	"/>
	<polygon fill="#B2B2B2" points="305.853,53.263 307.016,56.84 310.778,56.84 307.732,59.051 308.895,62.628 305.853,60.417 
		302.808,62.628 303.971,59.051 300.925,56.84 304.69,56.84 	"/>
	<polygon fill="#B2B2B2" points="317.325,53.263 318.484,56.84 322.248,56.84 319.204,59.051 320.367,62.628 317.325,60.417 
		314.279,62.628 315.442,59.051 312.397,56.84 316.16,56.84 	"/>
	<polygon fill="none" stroke="#B2B2B2" stroke-linecap="round" stroke-linejoin="round" stroke-miterlimit="10" points="
		328.794,53.263 329.956,56.84 333.717,56.84 330.673,59.051 331.836,62.628 328.794,60.417 325.749,62.628 326.912,59.051 
		323.869,56.84 327.629,56.84 	"/>
</g>
</svg>
