<?xml version="1.0" encoding="utf-8"?>
<!-- Generator: Adobe Illustrator 16.0.0, SVG Export Plug-In . SVG Version: 6.00 Build 0)  -->
<!DOCTYPE svg PUBLIC "-//W3C//DTD SVG 1.1//EN" "http://www.w3.org/Graphics/SVG/1.1/DTD/svg11.dtd">
<svg version="1.1" id="Calque_1" xmlns="http://www.w3.org/2000/svg" xmlns:xlink="http://www.w3.org/1999/xlink" x="0px" y="0px"
	  viewBox="180 302 236 236" enable-background="new 0 0 595.28 841.89" xml:space="preserve">
<path fill="#FFFFFF" d="M399.424,420.429c0,56.223-45.576,101.807-101.806,101.807c-56.24,0-101.81-45.584-101.81-101.807
	c0-56.224,45.569-101.809,101.81-101.809C353.848,318.62,399.424,364.205,399.424,420.429z"/>
<g>
	<polygon fill="#B2B2B2" points="272.145,471.838 323.074,471.838 323.074,446.141 	"/>
	<g>
		<g>
			<path fill="#B2B2B2" d="M317.513,388.922c0-10.975-8.937-19.895-19.911-19.895c-6.781,0-12.795,3.422-16.388,8.618
				c12.833,1.727,22.757,12.74,22.757,26.031c0,1.439-0.107,2.846-0.343,4.215C311.679,405.324,317.513,397.788,317.513,388.922z"/>
		</g>
	</g>
	<path fill="#B2B2B2" d="M335.913,436.038l-25.252-14.567c12.902-5.196,22.033-17.818,22.033-32.549
		c0-19.335-15.728-35.077-35.093-35.077c-19.334,0-35.077,15.742-35.077,35.077c0,14.73,9.131,27.353,22.034,32.549l-25.262,14.567
		c-1.445,0.832-2.317,2.38-2.317,4.036v42.263c0,2.583,2.084,4.676,4.665,4.676h71.938c2.573,0,4.672-2.093,4.672-4.676v-42.263
		C338.254,438.418,337.354,436.87,335.913,436.038z M271.865,388.922c0-14.194,11.55-25.752,25.736-25.752
		c14.209,0,25.745,11.558,25.745,25.752c0,14.186-11.536,25.744-25.745,25.744C283.415,414.666,271.865,403.108,271.865,388.922z
		 M328.906,477.68h-62.604v-34.906l31.299-18.045l31.305,18.045V477.68z"/>
</g>
<path fill="#B2B2B2" d="M297.618,525.619c-58.007,0-105.191-47.188-105.191-105.19c0-58.005,47.185-105.191,105.191-105.191
	c58.003,0,105.19,47.186,105.19,105.191C402.809,478.432,355.621,525.619,297.618,525.619z M297.618,322.004
	c-54.273,0-98.427,44.152-98.427,98.425c0,54.271,44.153,98.427,98.427,98.427c54.27,0,98.423-44.156,98.423-98.427
	C396.041,366.156,351.888,322.004,297.618,322.004z"/>
</svg>
