<?xml version="1.0" encoding="utf-8"?>
<!-- Generator: Adobe Illustrator 16.0.0, SVG Export Plug-In . SVG Version: 6.00 Build 0)  -->
<!DOCTYPE svg PUBLIC "-//W3C//DTD SVG 1.1//EN" "http://www.w3.org/Graphics/SVG/1.1/DTD/svg11.dtd">
<svg version="1.1" id="Calque_1" xmlns="http://www.w3.org/2000/svg" xmlns:xlink="http://www.w3.org/1999/xlink" x="0px" y="0px"
	  viewBox="180 302 236 236" enable-background="new 0 0 595.28 841.89" xml:space="preserve">
<g>
	<path fill="#542A44" d="M399.446,420.945c0,56.223-45.576,101.807-101.806,101.807c-56.24,0-101.81-45.584-101.81-101.807
		c0-56.224,45.569-101.809,101.81-101.809C353.87,319.137,399.446,364.722,399.446,420.945z"/>
	<g>
		<polygon fill="#77BC1F" points="272.167,472.354 323.097,472.354 323.097,446.657 		"/>
		<g>
			<g>
				<path fill="#77BC1F" d="M317.535,389.438c0-10.976-8.937-19.896-19.911-19.896c-6.781,0-12.795,3.422-16.388,8.618
					c12.833,1.727,22.757,12.739,22.757,26.031c0,1.439-0.107,2.846-0.343,4.215C311.701,405.841,317.535,398.305,317.535,389.438z"
					/>
			</g>
		</g>
		<path fill="#D76FA9" d="M335.936,436.555l-25.252-14.567c12.902-5.196,22.033-17.818,22.033-32.549
			c0-19.336-15.728-35.077-35.093-35.077c-19.334,0-35.077,15.741-35.077,35.077c0,14.73,9.131,27.353,22.034,32.549l-25.262,14.567
			c-1.445,0.832-2.317,2.38-2.317,4.036v42.263c0,2.583,2.084,4.676,4.665,4.676h71.938c2.573,0,4.672-2.093,4.672-4.676v-42.263
			C338.276,438.935,337.376,437.387,335.936,436.555z M271.888,389.438c0-14.194,11.55-25.753,25.736-25.753
			c14.209,0,25.745,11.559,25.745,25.753c0,14.186-11.536,25.743-25.745,25.743C283.438,415.182,271.888,403.624,271.888,389.438z
			 M328.929,478.196h-62.604V443.29l31.299-18.045l31.305,18.045V478.196z"/>
	</g>
	<path fill="#B2B2B2" d="M297.641,526.136c-58.007,0-105.191-47.188-105.191-105.19c0-58.006,47.185-105.191,105.191-105.191
		c58.003,0,105.19,47.186,105.19,105.191C402.831,478.948,355.644,526.136,297.641,526.136z M297.641,322.521
		c-54.273,0-98.427,44.152-98.427,98.425c0,54.271,44.153,98.427,98.427,98.427c54.27,0,98.423-44.156,98.423-98.427
		C396.063,366.673,351.91,322.521,297.641,322.521z"/>
</g>
</svg>
