<?xml version="1.0" encoding="utf-8"?>
<!-- Generator: Adobe Illustrator 16.0.0, SVG Export Plug-In . SVG Version: 6.00 Build 0)  -->
<!DOCTYPE svg PUBLIC "-//W3C//DTD SVG 1.1//EN" "http://www.w3.org/Graphics/SVG/1.1/DTD/svg11.dtd">
<svg version="1.1" id="Calque_1" xmlns="http://www.w3.org/2000/svg" xmlns:xlink="http://www.w3.org/1999/xlink" x="0px" y="0px"
	 width="595.28px" height="841.89px" viewBox="0 0 595.28 841.89" enable-background="new 0 0 595.28 841.89" xml:space="preserve">
<g>
	<path fill="#FFFFFF" d="M437.793,420.913c0,77.505-62.68,140.185-140.121,140.185c-77.408,0-140.186-62.68-140.186-140.185
		c0-77.44,62.777-140.121,140.186-140.121C375.113,280.792,437.793,343.472,437.793,420.913z"/>
	<path fill="#EB6BB0" d="M297.672,572.957c-83.854,0-152.045-68.191-152.045-152.044c0-83.789,68.191-151.98,152.045-151.98
		c83.789,0,151.98,68.191,151.98,151.98C449.652,504.766,381.461,572.957,297.672,572.957z M297.672,288.848
		c-72.832,0-132.129,59.265-132.129,132.064c0,72.832,59.297,132.128,132.129,132.128c72.8,0,132.064-59.297,132.064-132.128
		C429.736,348.113,370.473,288.848,297.672,288.848z"/>
	<g>
		<path fill="#EB6BB0" d="M356.066,420.945c0-6.026,4.834-10.893,10.861-10.893h38.479c-5.156-51.337-45.537-91.717-96.906-96.873
			v38.479c0,6.026-4.834,10.86-10.86,10.86c-6.026,0-10.86-4.834-10.86-10.86v-38.479c-51.337,5.188-91.749,45.568-96.905,96.873
			h38.479c6.026,0,10.86,4.866,10.86,10.893c0,6.026-4.834,10.893-10.86,10.893h-38.479c5.188,51.336,45.601,91.684,96.905,96.873
			v-38.479c0-6.027,4.834-10.861,10.86-10.861c6.026,0,10.86,4.834,10.86,10.861v38.479c51.338-5.125,91.75-45.537,96.906-96.873
			h-38.479C360.9,431.838,356.066,426.971,356.066,420.945z"/>
	</g>
	<path fill="#FFFFFF" d="M380.623,373.507c-1.9-3.287-31.871-33.387-35.191-35.32c-3.318-1.934-7.541-0.741-9.475,2.546
		l-44.311,76.731c-0.161,0.322,0,0.645-0.129,0.935c-0.354,0.87-0.322,1.611-0.322,2.514c0,0.935-0.032,1.708,0.322,2.578
		c0.129,0.291-0.032,0.613,0.129,0.902c0.58,1.064,1.45,1.838,2.417,2.418c0.064,0.031,0.064,0.129,0.097,0.129s0.032,0,0.064,0
		c1.031,0.611,2.224,0.934,3.416,0.934s2.385-0.322,3.417-0.934h0.031l76.957-43.958
		C381.365,381.081,382.492,376.859,380.623,373.507z"/>
</g>
</svg>
