<?xml version="1.0" encoding="utf-8"?>
<!-- Generator: Adobe Illustrator 19.1.0, SVG Export Plug-In . SVG Version: 6.00 Build 0)  -->
<svg version="1.1" id="Calque_1" xmlns="http://www.w3.org/2000/svg" xmlns:xlink="http://www.w3.org/1999/xlink" x="0px" y="0px"
	 viewBox="0 0 28 28" style="enable-background:new 0 0 28 28;" xml:space="preserve">
<style type="text/css">
	.st0{fill:#77BC1F;}
	.st1{fill:#EB6BAF;}
</style>
<g>
	<path class="st0" d="M19.7,18.1c1.7-1.6,3-3.1,3.4-3.6c1.1-1.5,1.4-2.3,1.4-3.8c0-3.1-2.3-5.6-5.1-5.6c-1.5,0-3,0.8-4,2.1l-0.5,0.7
		C14.9,7.9,25.4,7.9,19.7,18.1z"/>
	<path class="st1" d="M14,25.4c-0.4,0-1.6,0-5.9-4c-2.3-2.2-4.4-4.4-5.1-5.3c-1.4-1.9-1.9-3.2-1.9-5.3c0-4.4,3.4-8.1,7.6-8.1
		c2,0,3.9,0.9,5.4,2.4c1.4-1.5,3.3-2.4,5.4-2.4c4.2,0,7.6,3.6,7.6,8.1c0,2.1-0.5,3.4-1.9,5.3c-0.7,0.9-2.8,3.2-5.1,5.3
		C15.6,25.4,14.4,25.4,14,25.4z M8.6,4.1c-3.3,0-6.1,2.9-6.1,6.6c0,1.8,0.4,2.7,1.6,4.4c0.6,0.9,2.7,3,4.9,5.1
		c3.9,3.6,4.9,3.7,4.9,3.7c0,0,1,0,4.9-3.7c2.2-2.1,4.3-4.3,4.9-5.1c1.2-1.7,1.6-2.6,1.6-4.4c0-3.6-2.7-6.6-6.1-6.6
		c-1.9,0-3.6,0.9-4.8,2.5L14,7.5l-0.6-0.8C12.2,5,10.5,4.1,8.6,4.1z"/>
</g>
</svg>
