<?xml version="1.0" encoding="utf-8"?>
<!-- Generator: Adobe Illustrator 16.0.0, SVG Export Plug-In . SVG Version: 6.00 Build 0)  -->
<!DOCTYPE svg PUBLIC "-//W3C//DTD SVG 1.1//EN" "http://www.w3.org/Graphics/SVG/1.1/DTD/svg11.dtd">
<svg version="1.1" id="Calque_1" xmlns="http://www.w3.org/2000/svg" xmlns:xlink="http://www.w3.org/1999/xlink" x="0px" y="0px"
	  viewBox="180 302 236 236" enable-background="new 0 0 595.28 841.89" xml:space="preserve">
<path fill="#FFFFFF" d="M400.18,420.429c0,56.223-45.584,101.807-101.808,101.807c-56.232,0-101.808-45.584-101.808-101.807
	c0-56.224,45.575-101.809,101.808-101.809C354.596,318.62,400.18,364.205,400.18,420.429z"/>
<g>
	<g>
		<path fill="#B2B2B2" d="M343.178,414.712l11.427-11.425l-39.091-39.09l-11.424,11.425l-0.855,34.572l-9.219,0.311l0.926-36.944
			c0.032-1.19,0.515-2.302,1.339-3.149l15.981-15.968c1.805-1.805,4.714-1.805,6.502,0l45.594,45.583
			c1.797,1.797,1.797,4.721,0,6.502l-15.969,15.983c-0.848,0.831-1.967,1.315-3.148,1.347l-91.674,2.277l-11.419,11.442
			l39.092,39.072l11.408-11.424l0.862-34.377l9.202-0.141l-0.902,36.594c-0.031,1.177-0.52,2.296-1.346,3.135l-15.981,15.968
			c-1.791,1.805-4.707,1.805-6.502,0l-45.593-45.6c-1.796-1.782-1.796-4.706,0-6.487l15.968-15.983
			c0.848-0.825,1.967-1.315,3.148-1.345L343.178,414.712z"/>
	</g>
	<polygon fill="#B2B2B2" points="281.074,468.905 287.039,462.957 287.454,446.158 258.364,446.158 	"/>
	<polygon fill="#B2B2B2" points="308.6,410.1 340.691,409.291 346.648,403.342 340.356,397.057 308.918,397.057 	"/>
</g>
<path fill="#B2B2B2" d="M298.372,525.619c-58.006,0-105.19-47.188-105.19-105.19c0-58.005,47.185-105.191,105.19-105.191
	s105.19,47.186,105.19,105.191C403.562,478.432,356.378,525.619,298.372,525.619z M298.372,322.004
	c-54.273,0-98.424,44.152-98.424,98.425c0,54.271,44.15,98.427,98.424,98.427c54.271,0,98.427-44.156,98.427-98.427
	C396.799,366.156,352.644,322.004,298.372,322.004z"/>
</svg>
