<?xml version="1.0" encoding="utf-8"?>
<!-- Generator: Adobe Illustrator 19.1.0, SVG Export Plug-In . SVG Version: 6.00 Build 0)  -->
<svg version="1.1" id="Calque_1" xmlns="http://www.w3.org/2000/svg" xmlns:xlink="http://www.w3.org/1999/xlink" x="0px" y="0px"
	 viewBox="0 0 28 28" style="enable-background:new 0 0 28 28;" xml:space="preserve">
<style type="text/css">
	.st0{fill:#77BC1F;}
	.st1{fill:#EB6BAF;}
</style>
<g>
	<g>
		<path class="st0" d="M16.9,10.8c0.3,0,0.7,0,1,0.1C17,9.7,15.6,9,14.1,9c-2.7,0-4.9,2.3-4.9,5.1c0,2.5,1.7,4.5,3.9,5
			c-0.7-0.9-1.1-2-1.1-3.2C12,13.1,14.2,10.8,16.9,10.8z"/>
	</g>
	<path class="st1" d="M16.8,7.4c2.6-1.1,4.4-3.6,4.4-6.6c0-0.3-0.3-0.6-0.6-0.6S20,0.5,20,0.9c0,3.3-2.7,6-6,6s-6-2.7-6-6
		c0-0.3-0.3-0.6-0.6-0.6S6.9,0.5,6.9,0.9c0,2.9,1.8,5.5,4.4,6.6C8.7,8.5,6.9,11.1,6.9,14c0,3.7,2.9,6.8,6.5,7.1v2.1h-2.6
		c-0.3,0-0.6,0.3-0.6,0.6s0.3,0.6,0.6,0.6h2.6v2.7c0,0.3,0.3,0.6,0.6,0.6s0.6-0.3,0.6-0.6v-2.7h2.6c0.3,0,0.6-0.3,0.6-0.6
		s-0.3-0.6-0.6-0.6h-2.6v-2.1c3.7-0.3,6.5-3.4,6.5-7.1C21.1,11.1,19.3,8.5,16.8,7.4z M14.1,20c0,0-0.1,0-0.1,0c0,0-0.1,0-0.1,0
		C10.6,19.9,8,17.3,8,14c0-3.3,2.7-6,6-6s6,2.7,6,6C20,17.3,17.4,19.9,14.1,20z"/>
</g>
</svg>
