<?xml version="1.0" encoding="utf-8"?>
<!-- Generator: Adobe Illustrator 16.0.0, SVG Export Plug-In . SVG Version: 6.00 Build 0)  -->
<!DOCTYPE svg PUBLIC "-//W3C//DTD SVG 1.1//EN" "http://www.w3.org/Graphics/SVG/1.1/DTD/svg11.dtd">
<svg version="1.1" id="Calque_1" xmlns="http://www.w3.org/2000/svg" xmlns:xlink="http://www.w3.org/1999/xlink" x="0px" y="0px"
	  viewBox="180 302 236 236" enable-background="new 0 0 595.28 841.89" xml:space="preserve">
<g>
	<path fill="#FFFFFF" d="M399.446,420.945c0,56.223-45.566,101.807-101.807,101.807c-56.231,0-101.808-45.584-101.808-101.807
		c0-56.224,45.576-101.809,101.808-101.809C353.88,319.137,399.446,364.722,399.446,420.945z"/>
	<path fill="#B2B2B2" d="M276.531,420.96c4.769,2.257,8.618,4.83,11.534,7.701c3.517,3.46,6.768,8.157,9.567,13.758
		c2.815-5.601,6.067-10.298,9.582-13.758c2.924-2.871,6.782-5.444,11.534-7.701c-4.752-2.286-8.61-4.845-11.534-7.723
		c-3.515-3.468-6.767-8.165-9.582-13.766c-2.8,5.601-6.051,10.298-9.567,13.766C285.149,416.115,281.3,418.674,276.531,420.96z"/>
	<path fill="#B2B2B2" d="M297.633,494.738L297.633,494.738c-2.521,0-4.59-2.021-4.651-4.541
		c-0.599-22.098-6.704-42.007-15.555-50.726c-6.931-6.806-25.846-12.117-49.349-13.867c-2.442-0.187-4.325-2.218-4.325-4.645
		c0-2.457,1.883-4.487,4.325-4.674c23.52-1.75,42.418-7.062,49.349-13.867c8.851-8.719,14.956-28.63,15.555-50.71
		c0.062-2.535,2.131-4.558,4.651-4.558c2.551,0,4.612,2.022,4.674,4.558c0.614,22.08,6.704,41.991,15.556,50.71
		c6.93,6.806,25.828,12.117,49.356,13.867c2.435,0.187,4.315,2.217,4.315,4.674c0,2.427-1.881,4.458-4.315,4.645
		c-23.528,1.75-42.427,7.062-49.356,13.867c-8.852,8.719-14.941,28.628-15.556,50.726
		C302.245,492.717,300.168,494.738,297.633,494.738z M258.854,420.96c9.877,2.497,19.421,6.255,25.129,11.861
		c4.877,4.808,10.041,13.408,13.65,25.658c3.624-12.25,8.804-20.851,13.688-25.658c5.693-5.606,15.242-9.364,25.105-11.861
		c-9.863-2.519-19.412-6.276-25.105-11.883c-4.885-4.815-10.064-13.416-13.688-25.651c-3.609,12.235-8.773,20.836-13.65,25.651
		C278.274,414.684,268.73,418.441,258.854,420.96z"/>
	<path fill="#B2B2B2" d="M297.64,526.136c-58.005,0-105.191-47.188-105.191-105.19c0-58.006,47.187-105.191,105.191-105.191
		c58.007,0,105.191,47.186,105.191,105.191C402.831,478.948,355.646,526.136,297.64,526.136z M297.64,322.521
		c-54.271,0-98.426,44.152-98.426,98.425c0,54.271,44.154,98.427,98.426,98.427s98.426-44.156,98.426-98.427
		C396.065,366.673,351.911,322.521,297.64,322.521z"/>
</g>
</svg>
