<?xml version="1.0" encoding="utf-8"?>
<!-- Generator: Adobe Illustrator 19.1.0, SVG Export Plug-In . SVG Version: 6.00 Build 0)  -->
<svg version="1.1" id="Calque_1" xmlns="http://www.w3.org/2000/svg" xmlns:xlink="http://www.w3.org/1999/xlink" x="0px" y="0px"
	 viewBox="0 0 28 28" style="enable-background:new 0 0 28 28;" xml:space="preserve">
<style type="text/css">
	.st0{fill:#77BC1F;}
	.st1{fill:#EB6BAF;}
</style>
<g>
	<path class="st0" d="M9.3,22.5l8.8-2.1c1.9-0.5,3.3-0.9,4.3-2.9l1.6-3.5l0.1,5.6c0,0.7-0.3,1.4-0.8,2c-0.5,0.5-1.2,0.8-2,0.8
		L9.3,22.5z"/>
	<path class="st1" d="M23.1,6.6h-3.5V5.2c0-1.2-1-2.2-2.2-2.2h-6.7C9.5,3,8.5,4,8.5,5.2v1.5H4.9c-2,0-3.6,1.6-3.6,3.6v11.2
		c0,2,1.6,3.6,3.6,3.6h18.1c2,0,3.6-1.6,3.6-3.6V10.2C26.6,8.3,25,6.6,23.1,6.6z M10.1,5.2c0-0.3,0.3-0.6,0.6-0.6h6.7
		c0.3,0,0.6,0.3,0.6,0.6v1.5h-7.9V5.2z M4.9,8.2h18.1c1.1,0,1.9,0.8,2,1.9c-2.7,1.7-6,2.7-9.5,3c-0.2-0.5-0.7-0.9-1.3-0.9h-0.4
		c-0.6,0-1.1,0.4-1.3,0.9c-3.5-0.2-6.8-1.3-9.5-3C3,9.1,3.9,8.2,4.9,8.2z M25,21.4c0,1.1-0.9,2-2,2H4.9c-1.1,0-2-0.9-2-2v-9.5
		c2.8,1.6,6,2.5,9.5,2.7v0.8c0,0.8,0.6,1.4,1.4,1.4h0.4c0.8,0,1.4-0.6,1.4-1.4v-0.8c3.4-0.2,6.7-1.2,9.5-2.7V21.4z"/>
</g>
</svg>
