<?xml version="1.0" encoding="utf-8"?>
<!-- Generator: Adobe Illustrator 19.1.0, SVG Export Plug-In . SVG Version: 6.00 Build 0)  -->
<svg version="1.1" id="Calque_1" xmlns="http://www.w3.org/2000/svg" xmlns:xlink="http://www.w3.org/1999/xlink" x="0px" y="0px"
	 viewBox="0 0 28 28" style="enable-background:new 0 0 28 28;" xml:space="preserve">
<g>
	<g>
		<path d="M14.9,9c0.4,0,0.8,0,1.2,0.1C15,7.8,13.4,7,11.6,7C8.5,7,6,9.6,6,12.8c0,2.8,1.9,5.2,4.5,5.7c-0.8-1-1.2-2.3-1.2-3.6
			C9.2,11.7,11.8,9,14.9,9z"/>
	</g>
	<path d="M24.7,7.4c0-3.9-3.1-7.1-6.9-7.1c-2.6,0-5,1.5-6.1,3.9c0,0,0,0-0.1,0c-4.6,0-8.3,3.8-8.3,8.6c0,4.1,2.7,7.5,6.4,8.3
		l-0.9,1.2c-0.2,0.2-0.2,0.5-0.1,0.8c0.1,0.3,0.4,0.4,0.7,0.4H11c-0.1,0.6-0.4,1.6-1.9,2.8c-0.3,0.3-0.4,0.7-0.1,1.1
		c0.2,0.2,0.4,0.3,0.6,0.3c0.2,0,0.3-0.1,0.5-0.2c1.9-1.5,2.4-3,2.4-4h1.3c0.3,0,0.5-0.2,0.7-0.4c0.1-0.3,0.1-0.6-0.1-0.8l-0.9-1.2
		c3.2-0.8,5.7-3.5,6.2-7C22.7,13.3,24.7,10.6,24.7,7.4z M11.9,21.4l0.5,0.6H11l0.5-0.6H11.9z M11.6,19.9c-3.7,0-6.8-3.2-6.8-7.1
		s3-7.1,6.8-7.1s6.8,3.2,6.8,7.1S15.4,19.9,11.6,19.9z M19.9,12.5c-0.1-4-2.9-7.3-6.6-8.1c1-1.6,2.6-2.5,4.5-2.5
		c2.9,0,5.3,2.5,5.3,5.5C23.2,9.6,21.8,11.6,19.9,12.5z"/>
</g>
</svg>
